<svg width="466" height="466" viewBox="0 0 466 466" fill="none" xmlns="http://www.w3.org/2000/svg">
<path d="M39.0763 84.8417C43.1375 76.6911 46.3448 77.1849 52.8457 82.3113C80.8082 223.219 126.304 410.122 117.912 436.382C113.347 441.795 110.399 442.71 104.142 438.913C93.4348 432.416 87.2607 385.778 39.0763 84.8417Z" fill="#242323"/>
<path d="M32.0728 76.2409C40.1323 66.9539 46.6869 66.8913 57.3186 71.6016C88.2042 219.896 142.69 415.741 124.86 445.077C116.27 451.477 111.043 452.831 100.669 449.522C82.9147 443.861 78.0343 394.393 32.0728 76.2409Z" fill="#274A4B"/>
<path d="M45.3131 80.9642C187.749 7.26014 265.644 95.926 393.483 16.9828C374.849 61.3656 358.329 85.5948 360.756 129.365C367.317 150.227 387.236 169.962 427.212 200.526C290.739 327.453 191.824 214.296 83.1989 287.128L45.3131 80.9642Z" fill="#274A4B"/>
<path d="M49.1389 90.7175C182.193 23.5636 261.145 104.629 380.639 32.8496C363.024 72.8862 349.224 93.4533 351.222 132.813C357.205 151.54 374.69 174.762 411.726 202.017C283.905 317.013 172.243 201.797 83.4792 277.588L49.1389 90.7175Z" fill="black"/>
<path d="M38.6119 78.4888C42.6731 70.3382 45.8805 70.832 52.3814 75.9585C80.3439 216.866 125.839 403.769 117.447 430.03C112.883 435.442 109.934 436.357 103.678 432.56C92.9704 426.063 86.7963 379.425 38.6119 78.4888Z" fill="#242323"/>
<path d="M74.9635 109.764L73.5647 112.58L73.5736 112.584L73.5826 112.589L74.9635 109.764ZM68.753 95.9688L71.8038 96.8485L71.8061 96.8406L71.8083 96.8325L68.753 95.9688ZM76.4843 90.2828L76.6137 93.4291L76.6412 93.4282L76.6687 93.4267L76.4843 90.2828ZM79.3896 90.7792L82.5398 90.4373L82.3247 88.5949L80.5984 87.8769L79.3896 90.7792ZM79.2854 91.7252L82.1919 93.004L79.2854 91.7252ZM77.9687 92.3334L77.2158 95.3864L77.2429 95.3931L77.27 95.3994L77.9687 92.3334ZM70.6704 96.5567L67.5815 95.8231L70.6704 96.5567ZM75.7953 107.94L77.3145 105.187L75.7953 107.94ZM83.0566 106.683L80.8926 104.367L80.883 104.376L80.8734 104.385L83.0566 106.683ZM84.508 104.712L83.4367 101.742L82.2479 102.157L81.6778 103.272L84.508 104.712ZM85.2095 104.746L83.9261 107.616L84.0024 107.65L84.0803 107.68L85.2095 104.746ZM85.5111 106.663L82.7462 105.102L82.7321 105.127L82.7185 105.152L85.5111 106.663ZM84.0731 108.317L86.1004 110.752L86.1188 110.737L86.137 110.721L84.0731 108.317ZM80.5459 106.786C78.7611 107.568 77.4616 107.483 76.3444 106.939L73.5826 112.589C76.672 114.093 79.9589 113.943 83.1401 112.549L80.5459 106.786ZM76.3623 106.948C75.1655 106.356 73.8785 105.06 72.7206 102.488L66.9327 105.025C68.4521 108.4 70.5896 111.109 73.5647 112.58L76.3623 106.948ZM72.7206 102.488C71.5516 99.8918 71.4481 98.0902 71.8038 96.8485L65.7021 95.0891C64.7966 98.25 65.4089 101.64 66.9327 105.025L72.7206 102.488ZM71.8083 96.8325C72.1321 95.6794 72.9245 94.6718 74.7349 93.8783L72.1407 88.1159C68.9504 89.5142 66.6195 91.821 65.6976 95.105L71.8083 96.8325ZM74.7349 93.8783C75.4024 93.5858 76.0232 93.4491 76.6137 93.4291L76.3547 87.1367C74.8975 87.1861 73.4874 87.5257 72.1407 88.1159L74.7349 93.8783ZM76.6687 93.4267C77.2194 93.3985 77.7107 93.486 78.1808 93.6815L80.5984 87.8769C79.2268 87.3065 77.7812 87.0631 76.2997 87.139L76.6687 93.4267ZM76.2393 91.1211C76.2388 91.1157 76.231 91.0482 76.2437 90.9334C76.2567 90.8156 76.2916 90.6443 76.3789 90.4466L82.1919 93.004C82.5929 92.0946 82.6269 91.1828 82.5398 90.4373L76.2393 91.1211ZM76.3789 90.4465C76.4581 90.267 76.5874 90.054 76.7878 89.8498C76.9904 89.6432 77.2222 89.4903 77.4538 89.3888L80.0481 95.1512C81.0584 94.7084 81.7843 93.9279 82.1919 93.004L76.3789 90.4465ZM77.4538 89.3888C77.6487 89.3034 77.8663 89.2466 78.0939 89.2281C78.3191 89.2098 78.5149 89.2322 78.6674 89.2675L77.27 95.3994C78.1669 95.6064 79.1329 95.5523 80.0481 95.1512L77.4538 89.3888ZM78.7215 89.2804C76.7146 88.7803 74.7199 89.0036 72.8474 89.8242L75.4416 95.5866C76.139 95.281 76.6937 95.2563 77.2158 95.3864L78.7215 89.2804ZM72.8474 89.8242C70.2045 90.9826 68.2514 92.9681 67.5815 95.8231L73.7594 97.2901C73.9014 96.6845 74.2645 96.1026 75.4416 95.5866L72.8474 89.8242ZM67.5815 95.8231C66.954 98.4972 67.5921 101.364 68.86 104.18L74.6481 101.644C73.659 99.4468 73.5748 98.0767 73.7594 97.2901L67.5815 95.8231ZM68.86 104.18C70.1226 106.985 71.8477 109.362 74.2761 110.693L77.3145 105.187C76.5958 104.793 75.6268 103.818 74.6481 101.644L68.86 104.18ZM74.276 110.694C76.8722 112.117 79.6746 112.018 82.3176 110.86L79.7234 105.098C78.5462 105.613 77.8652 105.489 77.3145 105.187L74.276 110.694ZM82.3176 110.86C83.3975 110.387 84.3929 109.773 85.2397 108.981L80.8734 104.385C80.6376 104.606 80.2757 104.855 79.7234 105.098L82.3176 110.86ZM85.2206 108.998C86.0971 108.192 86.7915 107.22 87.3382 106.151L81.6778 103.272C81.4065 103.803 81.1333 104.146 80.8926 104.367L85.2206 108.998ZM85.5794 107.682C85.3335 107.768 85.0417 107.819 84.7245 107.803C84.4091 107.788 84.1378 107.71 83.9261 107.616L86.4928 101.876C85.5402 101.451 84.4635 101.383 83.4367 101.742L85.5794 107.682ZM84.0803 107.68C83.7975 107.571 83.5205 107.399 83.2826 107.166C83.0491 106.936 82.9042 106.698 82.8183 106.508L88.6064 103.971C88.1912 103.049 87.4332 102.233 86.3386 101.812L84.0803 107.68ZM82.8183 106.508C82.6389 106.109 82.6153 105.721 82.6556 105.435C82.6916 105.182 82.7684 105.063 82.7462 105.102L88.276 108.223C88.8432 107.225 89.3612 105.648 88.6064 103.971L82.8183 106.508ZM82.7185 105.152C82.6656 105.249 82.485 105.512 82.0091 105.914L86.137 110.721C86.9869 110.004 87.7649 109.163 88.3037 108.173L82.7185 105.152ZM82.0458 105.883C81.6302 106.223 81.1361 106.528 80.5459 106.786L83.1401 112.549C84.2169 112.077 85.2095 111.481 86.1004 110.752L82.0458 105.883Z" fill="#00FF00"/>
<path d="M81.8431 109.667C79.3601 110.756 77.0668 110.788 74.9636 109.764C72.8776 108.733 71.1653 106.73 69.8267 103.757C68.4803 100.766 68.1224 98.1701 68.7531 95.9688C69.3758 93.7502 70.9374 92.093 73.4378 90.9971C74.4449 90.5557 75.4604 90.3177 76.4843 90.2828C77.5003 90.2309 78.4688 90.3962 79.3897 90.7792C79.4333 91.1534 79.3986 91.4686 79.2854 91.7252C79.1722 91.9818 78.9941 92.1634 78.751 92.27C78.5079 92.3765 78.2472 92.3977 77.9688 92.3334C76.7042 92.0183 75.4295 92.1423 74.1445 92.7054C72.2346 93.5425 71.0765 94.8263 70.6705 96.5567C70.2644 98.2869 70.6257 100.405 71.7541 102.912C72.8748 105.401 74.2219 107.078 75.7953 107.94C77.3688 108.803 79.1105 108.816 81.0206 107.979C81.8366 107.621 82.5154 107.189 83.0566 106.683C83.6153 106.169 84.0991 105.512 84.5081 104.712C84.7416 104.63 84.9754 104.641 85.2095 104.746C85.4358 104.833 85.6035 104.997 85.7124 105.239C85.8914 105.637 85.8244 106.111 85.5111 106.663C85.2153 107.206 84.736 107.758 84.0731 108.317C83.4199 108.852 82.6766 109.302 81.8431 109.667Z" fill="black"/>
<path d="M99.7112 81.3898L97.0087 94.4096L99.7317 102.314L97.7848 102.948L95.0618 95.0435L84.8386 86.2311L86.9479 85.5444L95.4417 92.9163L97.6291 82.0676L99.7112 81.3898Z" fill="#00FF00"/>
<path d="M99.711 81.3898L100.489 81.558L100.767 80.2153L99.4538 80.6429L99.711 81.3898ZM97.0086 94.4097L96.2308 94.2415L96.1874 94.4507L96.2574 94.6542L97.0086 94.4097ZM99.7315 102.315L99.9888 103.061L100.74 102.817L100.483 102.07L99.7315 102.315ZM97.7846 102.948L97.0334 103.193L97.2907 103.94L98.0419 103.695L97.7846 102.948ZM95.0617 95.0435L95.8127 94.7989L95.7426 94.5955L95.5784 94.4539L95.0617 95.0435ZM84.8385 86.2311L84.5812 85.4842L83.2674 85.9119L84.3217 86.8207L84.8385 86.2311ZM86.9477 85.5445L87.4665 84.9567L87.1216 84.6573L86.6904 84.7977L86.9477 85.5445ZM95.4416 92.9163L94.9228 93.5042L95.9543 94.3995L96.2203 93.0802L95.4416 92.9163ZM97.6289 82.0676L97.3716 81.3207L96.9394 81.4615L96.8502 81.9038L97.6289 82.0676ZM98.9332 81.2217L96.2308 94.2415L97.7864 94.5779L100.489 81.558L98.9332 81.2217ZM96.2574 94.6542L98.9804 102.559L100.483 102.07L97.7597 94.1652L96.2574 94.6542ZM99.4743 101.568L97.5274 102.201L98.0419 103.695L99.9888 103.061L99.4743 101.568ZM98.5358 102.704L95.8127 94.7989L94.3105 95.288L97.0334 103.193L98.5358 102.704ZM95.5784 94.4539L85.3553 85.6415L84.3217 86.8207L94.5448 95.633L95.5784 94.4539ZM85.0958 86.978L87.2049 86.2914L86.6904 84.7977L84.5812 85.4842L85.0958 86.978ZM86.4288 86.1324L94.9228 93.5042L95.9605 92.3286L87.4665 84.9567L86.4288 86.1324ZM96.2203 93.0802L98.4075 82.2315L96.8502 81.9038L94.6628 92.7526L96.2203 93.0802ZM97.8861 82.8144L99.9683 82.1366L99.4538 80.6429L97.3716 81.3207L97.8861 82.8144Z" fill="#00FF00"/>
<path d="M117.287 86.51C118.37 86.553 119.339 86.9238 120.194 87.6225C121.047 88.3213 121.609 89.223 121.879 90.328C122.298 92.0407 122.031 93.5024 121.078 94.713C120.12 95.9052 118.551 96.7515 116.371 97.2519L109.719 98.7785L104.992 79.4417L111.366 77.9787C113.288 77.5377 114.916 77.6503 116.25 78.3166C117.579 78.9647 118.435 80.0713 118.818 81.6365C119.056 82.6126 119.03 83.5426 118.739 84.4263C118.465 85.3059 117.982 86.0003 117.287 86.51ZM116.822 82.0946C116.561 81.0266 115.977 80.2755 115.071 79.8417C114.183 79.4037 113.084 79.3351 111.771 79.6362L107.392 80.6413L109.114 87.6853L113.411 86.6993C116.274 86.0421 117.412 84.5072 116.822 82.0946ZM115.689 95.658C117.499 95.2425 118.732 94.6581 119.388 93.9047C120.038 93.1332 120.204 92.0935 119.884 90.7859C119.569 89.4967 118.923 88.6531 117.948 88.2546C116.99 87.8519 115.615 87.8563 113.823 88.2676L109.499 89.2599L111.309 96.6631L115.689 95.658Z" fill="#00FF00"/>
<path d="M117.287 86.51L116.811 85.8743L114.994 87.2066L117.266 87.2966L117.287 86.51ZM120.194 87.6225L119.695 88.2276L120.194 87.6225ZM121.078 94.713L121.7 95.2089L121.705 95.2029L121.078 94.713ZM109.719 98.7785L108.95 98.9551L109.136 99.7226L109.907 99.5458L109.719 98.7785ZM104.992 79.4417L104.804 78.6744L104.034 78.8511L104.222 79.6184L104.992 79.4417ZM116.25 78.3166L115.901 79.0193L115.908 79.0228L116.25 78.3166ZM118.739 84.4262L117.986 84.1725L117.981 84.1857L118.739 84.4262ZM115.071 79.8417L114.726 80.5461L114.734 80.5502L115.071 79.8417ZM107.392 80.6412L107.205 79.8738L106.434 80.0506L106.622 80.8179L107.392 80.6412ZM109.115 87.6853L108.345 87.862L108.533 88.6293L109.302 88.4526L109.115 87.6853ZM119.388 93.9047L119.991 94.4239L119.998 94.4148L119.388 93.9047ZM117.948 88.2546L117.647 88.979L117.655 88.9823L117.948 88.2546ZM109.499 89.2599L109.312 88.4926L108.542 88.6692L108.73 89.4365L109.499 89.2599ZM111.309 96.6631L110.54 96.8398L110.727 97.6071L111.497 97.4304L111.309 96.6631ZM117.266 87.2966C118.172 87.3327 118.973 87.6383 119.695 88.2276L120.692 87.0173C119.705 86.2094 118.57 85.773 117.309 85.7231L117.266 87.2966ZM119.695 88.2276C120.408 88.8118 120.878 89.5608 121.11 90.5047L122.649 90.1513C122.34 88.8853 121.687 87.8304 120.692 87.0173L119.695 88.2276ZM121.11 90.5047C121.48 92.0199 121.236 93.2271 120.452 94.2229L121.705 95.2029C122.826 93.7775 123.116 92.0616 122.649 90.1513L121.11 90.5047ZM120.456 94.2171C119.648 95.2231 118.267 96.0063 116.183 96.4845L116.559 98.0191C118.836 97.4966 120.592 96.5872 121.7 95.2088L120.456 94.2171ZM116.183 96.4845L109.532 98.0112L109.907 99.5458L116.559 98.0191L116.183 96.4845ZM110.489 98.6018L105.761 79.2651L104.222 79.6184L108.95 98.9551L110.489 98.6018ZM105.179 80.209L111.554 78.746L111.178 77.2114L104.804 78.6744L105.179 80.209ZM111.554 78.746C113.356 78.3325 114.782 78.4603 115.901 79.0192L116.598 77.614C115.05 76.8404 113.22 76.7428 111.178 77.2114L111.554 78.746ZM115.908 79.0228C117 79.555 117.715 80.4529 118.047 81.8134L119.588 81.4599C119.155 79.6897 118.158 78.3743 116.592 77.6105L115.908 79.0228ZM118.047 81.8134C118.254 82.6575 118.228 83.4376 117.986 84.1725L119.492 84.6799C119.832 83.6474 119.859 82.5678 119.588 81.4599L118.047 81.8134ZM117.981 84.1857C117.754 84.9183 117.363 85.4698 116.811 85.8743L117.762 87.1456C118.601 86.5307 119.178 85.6931 119.496 84.667L117.981 84.1857ZM117.592 81.918C117.28 80.6445 116.556 79.6823 115.407 79.1331L114.734 80.5502C115.4 80.8684 115.841 81.4086 116.052 82.2714L117.592 81.918ZM115.416 79.1373C114.311 78.5918 113.009 78.5418 111.584 78.8689L111.959 80.4035C113.158 80.1283 114.056 80.2153 114.726 80.546L115.416 79.1373ZM111.584 78.8689L107.205 79.8738L107.58 81.4085L111.959 80.4035L111.584 78.8689ZM106.622 80.8179L108.345 87.862L109.884 87.5086L108.163 80.4644L106.622 80.8179ZM109.302 88.4526L113.599 87.4665L113.223 85.9319L108.927 86.918L109.302 88.4526ZM113.599 87.4665C115.121 87.1173 116.328 86.5045 117.052 85.5271C117.796 84.5231 117.925 83.2793 117.592 81.918L116.052 82.2714C116.309 83.3223 116.165 84.0522 115.771 84.5832C115.358 85.1406 114.565 85.624 113.223 85.9319L113.599 87.4665ZM115.877 96.4253C117.73 95.9999 119.168 95.3691 119.99 94.424L118.785 93.3857C118.297 93.9469 117.269 94.485 115.501 94.8907L115.877 96.4253ZM119.998 94.4148C120.857 93.3954 121.012 92.0736 120.654 90.6093L119.114 90.9627C119.395 92.1134 119.219 92.8708 118.778 93.3947L119.998 94.4148ZM120.654 90.6093C120.296 89.1459 119.518 88.0484 118.241 87.5268L117.655 88.9823C118.328 89.2576 118.842 89.8478 119.114 90.9627L120.654 90.6093ZM118.249 87.53C117.057 87.0283 115.478 87.0773 113.636 87.5003L114.011 89.0349C115.753 88.6351 116.925 88.6754 117.647 88.979L118.249 87.53ZM113.636 87.5003L109.312 88.4926L109.687 90.0272L114.011 89.0349L113.636 87.5003ZM108.73 89.4365L110.54 96.8398L112.079 96.4865L110.269 89.0833L108.73 89.4365ZM111.497 97.4304L115.877 96.4253L115.501 94.8907L111.122 95.8958L111.497 97.4304Z" fill="#00FF00"/>
<path d="M140.765 90.5739C140.907 91.2415 140.9 91.7067 140.743 91.9699C140.604 92.2294 140.247 92.4165 139.671 92.5314L129.435 94.5696L125.276 75.1026L136.935 72.7809L137.291 74.4496L127.642 76.3712L129.138 83.3795L137.45 81.7243L137.806 83.3929L129.494 85.0481L131.087 92.5012L140.765 90.5739Z" fill="#00FF00"/>
<path d="M140.765 90.5739L141.54 90.4196L141.374 89.6471L140.6 89.8014L140.765 90.5739ZM140.743 91.9699L140.061 91.5616L140.051 91.5776L140.042 91.5938L140.743 91.9699ZM129.436 94.5696L128.661 94.7239L128.826 95.4963L129.6 95.3422L129.436 94.5696ZM125.277 75.1026L125.112 74.33L124.337 74.4843L124.503 75.2567L125.277 75.1026ZM136.935 72.7809L137.71 72.6267L137.545 71.8542L136.77 72.0085L136.935 72.7809ZM137.291 74.4496L137.457 75.222L138.231 75.0679L138.066 74.2953L137.291 74.4496ZM127.642 76.3712L127.476 75.5988L126.702 75.7531L126.867 76.5255L127.642 76.3712ZM129.138 83.3795L128.364 83.5336L128.529 84.3062L129.303 84.1519L129.138 83.3795ZM137.45 81.7243L138.225 81.57L138.059 80.7975L137.285 80.9518L137.45 81.7243ZM137.806 83.3929L137.971 84.1655L138.746 84.0113L138.581 83.2386L137.806 83.3929ZM129.495 85.0481L129.33 84.2755L128.555 84.4298L128.72 85.2024L129.495 85.0481ZM131.087 92.5012L130.312 92.6555L130.477 93.4279L131.252 93.2736L131.087 92.5012ZM139.99 90.7282C140.054 91.0279 140.076 91.2482 140.074 91.4013C140.072 91.562 140.043 91.5916 140.061 91.5616L141.426 92.3781C141.601 92.085 141.653 91.7504 141.658 91.4457C141.663 91.1336 141.618 90.7875 141.54 90.4196L139.99 90.7282ZM140.042 91.5938C140.069 91.5441 140.085 91.5599 139.995 91.6069C139.905 91.654 139.751 91.7101 139.506 91.7587L139.836 93.3038C140.439 93.1837 141.127 92.941 141.444 92.3458L140.042 91.5938ZM139.506 91.7587L129.27 93.7972L129.6 95.3422L139.836 93.3038L139.506 91.7587ZM130.21 94.4153L126.051 74.9483L124.503 75.2567L128.661 94.7239L130.21 94.4153ZM125.442 75.875L137.1 73.5534L136.77 72.0085L125.112 74.33L125.442 75.875ZM136.16 72.9352L136.517 74.6039L138.066 74.2953L137.71 72.6267L136.16 72.9352ZM137.126 73.6772L127.476 75.5988L127.806 77.1438L137.457 75.222L137.126 73.6772ZM126.867 76.5255L128.364 83.5336L129.913 83.2252L128.416 76.2171L126.867 76.5255ZM129.303 84.1519L137.614 82.4969L137.285 80.9518L128.974 82.6069L129.303 84.1519ZM136.675 81.8786L137.031 83.5472L138.581 83.2386L138.225 81.57L136.675 81.8786ZM137.641 82.6205L129.33 84.2755L129.66 85.8206L137.971 84.1655L137.641 82.6205ZM128.72 85.2024L130.312 92.6555L131.862 92.3469L130.269 84.8937L128.72 85.2024ZM131.252 93.2736L140.93 91.3464L140.6 89.8014L130.922 91.7288L131.252 93.2736Z" fill="#00FF00"/>
<path d="M160.852 90.8373C160.494 91.0793 160.098 91.2201 159.664 91.2597C159.324 91.2907 159.034 91.2506 158.796 91.139C158.576 91.0258 158.366 90.826 158.168 90.5395L154.424 85.2841C153.897 84.5325 153.289 84.0263 152.597 83.7659C151.924 83.4845 151.03 83.3947 149.916 83.4963L147.99 83.672L148.768 92.0248L146.729 92.2108L144.885 72.3901L151.314 71.8038C153.598 71.5956 155.439 71.9418 156.837 72.8423C158.233 73.7238 159.014 75.0615 159.18 76.8547C159.313 78.2704 158.954 79.5406 158.107 80.6647C157.258 81.7702 156.09 82.5145 154.602 82.8976C155.192 83.3007 155.736 83.8318 156.235 84.4906L160.852 90.8373ZM152.075 81.529C153.774 81.3741 155.055 80.9051 155.914 80.1224C156.794 79.3377 157.174 78.3132 157.057 77.0484C156.935 75.746 156.4 74.8048 155.452 74.225C154.52 73.6246 153.195 73.4028 151.477 73.5595L147.087 73.9598L147.827 81.9163L152.075 81.529Z" fill="#00FF00"/>
<path d="M160.852 90.8372L161.296 91.4917L161.972 91.0346L161.491 90.3735L160.852 90.8372ZM158.796 91.139L158.435 91.8411L158.448 91.8481L158.463 91.8545L158.796 91.139ZM158.168 90.5394L158.819 90.0912L158.812 90.0819L158.168 90.5394ZM154.424 85.2841L153.777 85.7366L153.781 85.7414L154.424 85.2841ZM152.597 83.7659L152.294 84.4945L152.307 84.4997L152.32 84.5045L152.597 83.7659ZM147.99 83.672L147.918 82.8853L147.131 82.957L147.204 83.7435L147.99 83.672ZM148.768 92.0248L148.841 92.8113L149.627 92.7398L149.554 91.9533L148.768 92.0248ZM146.729 92.2108L145.942 92.2826L146.015 93.0691L146.802 92.9973L146.729 92.2108ZM144.885 72.3901L144.812 71.6036L144.025 71.6753L144.098 72.4618L144.885 72.3901ZM156.837 72.8422L156.41 73.5059L156.415 73.5097L156.837 72.8422ZM158.107 80.6647L158.734 81.1466L158.738 81.1409L158.107 80.6647ZM154.602 82.8976L154.404 82.1328L152.719 82.5665L154.157 83.5493L154.602 82.8976ZM156.235 84.4906L156.874 84.0268L156.87 84.0205L156.864 84.0144L156.235 84.4906ZM155.914 80.1223L155.388 79.5327L155.382 79.5378L155.914 80.1223ZM155.452 74.2249L155.025 74.8885L155.033 74.8937L155.041 74.8986L155.452 74.2249ZM147.087 73.9598L147.015 73.1731L146.228 73.2448L146.301 74.0314L147.087 73.9598ZM147.827 81.9163L147.04 81.9881L147.114 82.7746L147.901 82.7028L147.827 81.9163ZM160.41 90.1826C160.162 90.3497 159.894 90.4455 159.591 90.4732L159.736 92.0463C160.302 91.9947 160.826 91.8089 161.296 91.4917L160.41 90.1826ZM159.591 90.4732C159.35 90.4952 159.208 90.4608 159.129 90.4234L158.463 91.8545C158.86 92.0404 159.298 92.0862 159.736 92.0463L159.591 90.4732ZM159.156 90.4369C159.09 90.4026 158.971 90.3117 158.818 90.0913L157.518 90.9876C157.762 91.34 158.062 91.6489 158.435 91.8411L159.156 90.4369ZM158.812 90.0819L155.068 84.8265L153.781 85.7414L157.525 90.9969L158.812 90.0819ZM155.071 84.8315C154.475 83.9814 153.748 83.356 152.875 83.027L152.32 84.5045C152.829 84.6967 153.319 85.0835 153.777 85.7365L155.071 84.8315ZM152.901 83.037C152.061 82.6867 151.023 82.6021 149.843 82.7098L149.99 84.2828C151.038 84.1872 151.786 84.2825 152.294 84.4945L152.901 83.037ZM149.843 82.7098L147.918 82.8853L148.064 84.4585L149.99 84.2828L149.843 82.7098ZM147.204 83.7435L147.981 92.0966L149.554 91.9533L148.777 83.6002L147.204 83.7435ZM148.694 91.2383L146.656 91.4243L146.802 92.9973L148.841 92.8113L148.694 91.2383ZM147.515 92.1392L145.672 72.3183L144.098 72.4618L145.942 92.2826L147.515 92.1392ZM144.958 73.1766L151.386 72.5905L151.241 71.0173L144.812 71.6036L144.958 73.1766ZM151.386 72.5905C153.561 72.3921 155.208 72.7316 156.41 73.5058L157.264 72.1786C155.671 71.1517 153.635 70.799 151.241 71.0173L151.386 72.5905ZM156.415 73.5097C157.583 74.2468 158.247 75.3517 158.394 76.9265L159.967 76.7829C159.78 74.7712 158.882 73.2009 157.258 72.1747L156.415 73.5097ZM158.394 76.9265C158.507 78.1485 158.203 79.2229 157.476 80.1888L158.738 81.1409C159.705 79.8582 160.117 78.3924 159.967 76.7829L158.394 76.9265ZM157.48 80.1831C156.749 81.1347 155.739 81.789 154.404 82.1328L154.8 83.6626C156.44 83.2401 157.766 82.4058 158.734 81.1465L157.48 80.1831ZM154.157 83.5493C154.666 83.8973 155.15 84.3655 155.606 84.9668L156.864 84.0144C156.322 83.298 155.718 82.7041 155.047 82.246L154.157 83.5493ZM155.596 84.9544L160.213 91.301L161.491 90.3735L156.874 84.0268L155.596 84.9544ZM152.149 82.3155C153.943 82.1518 155.413 81.6478 156.447 80.7068L155.382 79.5378C154.695 80.1624 153.607 80.5961 152.002 80.7425L152.149 82.3155ZM156.442 80.7119C157.523 79.7463 157.982 78.4683 157.843 76.9766L156.27 77.1202C156.367 78.1578 156.064 78.9292 155.388 79.5327L156.442 80.7119ZM157.843 76.9766C157.704 75.4755 157.064 74.2854 155.863 73.5512L155.041 74.8986C155.737 75.3239 156.167 76.0162 156.27 77.1202L157.843 76.9766ZM155.879 73.5613C154.736 72.8249 153.206 72.6086 151.404 72.7729L151.55 74.3459C153.184 74.197 154.304 74.4243 155.025 74.8885L155.879 73.5613ZM151.404 72.7729L147.015 73.1731L147.16 74.7463L151.55 74.3459L151.404 72.7729ZM146.301 74.0314L147.04 81.9881L148.614 81.8445L147.874 73.888L146.301 74.0314ZM147.901 82.7028L152.149 82.3155L152.002 80.7425L147.754 81.1298L147.901 82.7028Z" fill="#00FF00"/>
<path d="M220.008 238.39L218.623 241.229L218.644 241.239L218.666 241.25L220.008 238.39ZM217.283 233.226L219.112 235.804L219.119 235.799L219.126 235.793L217.283 233.226ZM218.424 232.931L221.557 232.522L221.214 229.908L218.58 229.775L218.424 232.931ZM227.693 236.814L226.035 234.122L226.023 234.13L226.01 234.138L227.693 236.814ZM229.055 232.227L226.304 233.779L226.324 233.814L226.345 233.849L229.055 232.227ZM227.475 230.768L225.81 233.452L225.836 233.468L225.863 233.484L227.475 230.768ZM224.294 229.331L223.203 232.296L223.217 232.302L223.233 232.307L224.294 229.331ZM220.596 227.619L218.866 230.262L218.887 230.277L218.909 230.29L220.596 227.619ZM218.736 225.791L215.926 227.236L215.952 227.286L215.979 227.335L218.736 225.791ZM220.449 219.866L222.148 222.532L222.161 222.523L222.174 222.515L220.449 219.866ZM229.777 220.613L227.714 223.004L227.735 223.022L227.756 223.041L229.777 220.613ZM231.888 224.377L233.909 226.807L235.317 225.636L235 223.833L231.888 224.377ZM229.631 223.769L232.59 222.666L232.582 222.643L232.574 222.621L229.631 223.769ZM227.915 221.612L226.066 224.173L226.078 224.182L226.091 224.191L227.915 221.612ZM220.683 225.114L217.954 226.707L217.973 226.739L217.992 226.77L220.683 225.114ZM224.715 227.542L223.586 230.493L223.588 230.494L224.715 227.542ZM229.126 229.578L227.462 232.262L227.471 232.268L227.482 232.274L229.126 229.578ZM230.347 237.144L232.786 239.155L232.795 239.143L232.805 239.131L230.347 237.144ZM227.552 238.971L228.514 241.982L228.526 241.977L228.538 241.974L227.552 238.971ZM223.839 236.17C222.858 236.08 222.04 235.854 221.351 235.53L218.666 241.25C220.093 241.921 221.637 242.313 223.262 242.463L223.839 236.17ZM221.394 235.551C220.677 235.2 220.285 234.848 220.068 234.563L215.044 238.394C215.983 239.624 217.226 240.546 218.623 241.229L221.394 235.551ZM220.068 234.563C219.969 234.434 219.948 234.366 219.947 234.365C219.947 234.362 219.948 234.366 219.949 234.375C219.95 234.385 219.95 234.389 219.95 234.385L213.657 233.805C213.498 235.537 214.059 237.102 215.044 238.394L220.068 234.563ZM219.95 234.385C219.933 234.568 219.875 234.833 219.716 235.122C219.554 235.417 219.335 235.645 219.112 235.804L215.455 230.648C214.348 231.432 213.768 232.597 213.657 233.805L219.95 234.385ZM219.126 235.793C218.948 235.922 218.76 236.003 218.589 236.048C218.425 236.09 218.309 236.089 218.267 236.087L218.58 229.775C217.567 229.724 216.441 229.939 215.44 230.658L219.126 235.793ZM215.291 233.34C215.556 235.365 216.419 237.195 218.01 238.563L222.128 233.772C221.884 233.562 221.65 233.235 221.557 232.522L215.291 233.34ZM218.01 238.563C219.551 239.888 221.464 240.526 223.48 240.712L224.056 234.419C222.976 234.319 222.423 234.026 222.128 233.772L218.01 238.563ZM223.48 240.712C225.543 240.903 227.598 240.605 229.375 239.489L226.01 234.138C225.726 234.316 225.165 234.521 224.056 234.419L223.48 240.712ZM229.349 239.505C231.214 238.358 232.373 236.567 232.576 234.351L226.283 233.771C226.276 233.85 226.264 233.897 226.257 233.919C226.25 233.94 226.244 233.95 226.242 233.953C226.238 233.958 226.229 233.973 226.202 233.998C226.174 234.024 226.124 234.068 226.035 234.122L229.349 239.505ZM232.576 234.351C232.692 233.088 232.474 231.787 231.765 230.605L226.345 233.849C226.331 233.826 226.318 233.801 226.308 233.773C226.297 233.747 226.292 233.724 226.288 233.709C226.282 233.676 226.291 233.691 226.283 233.771L232.576 234.351ZM231.807 230.674C231.142 229.497 230.113 228.66 229.089 228.051L225.863 233.484C226.093 233.62 226.228 233.727 226.296 233.791C226.364 233.853 226.346 233.854 226.304 233.779L231.807 230.674ZM229.14 228.083C228.113 227.445 226.817 226.879 225.356 226.356L223.233 232.307C224.499 232.759 225.325 233.151 225.81 233.452L229.14 228.083ZM225.385 226.367C223.899 225.819 222.897 225.338 222.282 224.948L218.909 230.29C220.057 231.016 221.521 231.676 223.203 232.296L225.385 226.367ZM222.325 224.976C221.7 224.566 221.52 224.298 221.491 224.248L215.979 227.335C216.671 228.57 217.731 229.519 218.866 230.262L222.325 224.976ZM221.545 224.347C221.537 224.332 221.457 224.177 221.497 223.732L215.205 223.152C215.079 224.52 215.255 225.932 215.926 227.236L221.545 224.347ZM221.497 223.732C221.561 223.039 221.784 222.764 222.148 222.532L218.751 217.2C216.608 218.565 215.431 220.673 215.205 223.152L221.497 223.732ZM222.174 222.515C222.644 222.209 223.515 221.923 225.131 222.071L225.708 215.778C223.207 215.547 220.765 215.888 218.725 217.217L222.174 222.515ZM225.131 222.071C226.42 222.19 227.204 222.565 227.714 223.004L231.84 218.22C230.127 216.74 228.006 215.99 225.708 215.778L225.131 222.071ZM227.756 223.041C228.265 223.464 228.619 224.027 228.776 224.921L235 223.833C234.606 221.592 233.553 219.645 231.797 218.183L227.756 223.041ZM229.867 221.947C230.492 221.427 231.075 221.501 231.009 221.494L230.433 227.787C231.388 227.875 232.748 227.772 233.909 226.807L229.867 221.947ZM231.009 221.494C231.271 221.518 231.657 221.625 232.024 221.918C232.378 222.201 232.534 222.514 232.59 222.666L226.67 224.872C226.925 225.556 227.363 226.281 228.081 226.855C228.811 227.437 229.643 227.715 230.433 227.787L231.009 221.494ZM232.574 222.621C231.996 221.142 231.018 219.937 229.739 219.032L226.091 224.191C226.42 224.424 226.586 224.657 226.688 224.917L232.574 222.621ZM229.763 219.05C228.511 218.146 227.086 217.619 225.552 217.478L224.975 223.77C225.404 223.811 225.747 223.943 226.066 224.173L229.763 219.05ZM225.552 217.478C223.722 217.308 221.768 217.478 220.117 218.504L223.452 223.873C223.447 223.876 223.532 223.822 223.783 223.781C224.039 223.74 224.426 223.72 224.975 223.77L225.552 217.478ZM220.117 218.504C218.316 219.622 217.421 221.406 217.243 223.341L223.536 223.921C223.545 223.824 223.559 223.768 223.566 223.745C223.573 223.722 223.573 223.729 223.559 223.753C223.544 223.778 223.523 223.808 223.497 223.836C223.47 223.862 223.452 223.873 223.452 223.873L220.117 218.504ZM217.243 223.341C217.142 224.452 217.324 225.627 217.954 226.707L223.411 223.521C223.47 223.624 223.507 223.728 223.524 223.816C223.54 223.901 223.535 223.942 223.536 223.921L217.243 223.341ZM217.992 226.77C218.611 227.774 219.523 228.484 220.368 228.996L223.637 223.589C223.448 223.475 223.345 223.394 223.302 223.355C223.258 223.315 223.303 223.345 223.373 223.458L217.992 226.77ZM220.368 228.996C221.234 229.519 222.337 230.014 223.586 230.493L225.844 224.592C224.738 224.168 224.034 223.829 223.637 223.589L220.368 228.996ZM223.588 230.494C225.497 231.224 226.746 231.818 227.462 232.262L230.791 226.893C229.562 226.129 227.87 225.366 225.842 224.591L223.588 230.494ZM227.482 232.274C227.83 232.487 228.056 232.667 228.196 232.8C228.335 232.932 228.362 232.994 228.351 232.972L233.947 230.04C233.222 228.657 232.02 227.643 230.772 226.881L227.482 232.274ZM228.351 232.972C228.34 232.951 228.453 233.151 228.394 233.794L234.687 234.375C234.819 232.94 234.671 231.421 233.947 230.04L228.351 232.972ZM228.394 233.794C228.337 234.422 228.148 234.836 227.888 235.157L232.805 239.131C233.92 237.751 234.527 236.125 234.687 234.375L228.394 233.794ZM227.908 235.133C227.657 235.438 227.262 235.74 226.565 235.969L228.538 241.974C230.197 241.429 231.665 240.514 232.786 239.155L227.908 235.133ZM226.589 235.961C225.923 236.173 225.029 236.28 223.839 236.17L223.262 242.463C225.093 242.632 226.866 242.507 228.514 241.982L226.589 235.961Z" fill="#00FF00"/>
<path d="M223.551 239.316C222.248 239.196 221.067 238.888 220.008 238.39C218.951 237.873 218.134 237.237 217.556 236.479C216.979 235.72 216.727 234.927 216.803 234.095C216.838 233.718 216.998 233.428 217.283 233.226C217.589 233.006 217.969 232.908 218.424 232.931C218.603 234.299 219.152 235.378 220.069 236.167C220.987 236.956 222.22 237.423 223.768 237.566C225.354 237.711 226.662 237.461 227.693 236.814C228.742 236.168 229.321 235.25 229.43 234.061C229.494 233.363 229.369 232.751 229.055 232.227C228.761 231.705 228.234 231.218 227.475 230.768C226.719 230.298 225.658 229.82 224.294 229.331C222.711 228.748 221.477 228.177 220.596 227.619C219.715 227.043 219.095 226.434 218.736 225.791C218.396 225.132 218.268 224.349 218.351 223.442C218.496 221.857 219.196 220.664 220.449 219.866C221.705 219.049 223.362 218.735 225.419 218.925C227.213 219.091 228.665 219.653 229.777 220.612C230.909 221.554 231.613 222.809 231.888 224.377C231.62 224.6 231.231 224.688 230.722 224.641C230.193 224.592 229.829 224.301 229.631 223.769C229.291 222.9 228.72 222.18 227.915 221.611C227.129 221.044 226.245 220.714 225.264 220.624C223.772 220.487 222.612 220.674 221.784 221.189C220.957 221.703 220.492 222.517 220.39 223.631C220.338 224.196 220.435 224.691 220.683 225.114C220.931 225.518 221.371 225.911 222.002 226.292C222.634 226.674 223.538 227.091 224.715 227.542C226.683 228.295 228.154 228.973 229.126 229.578C230.118 230.183 230.793 230.826 231.149 231.506C231.505 232.187 231.637 233.046 231.541 234.085C231.432 235.274 231.034 236.294 230.347 237.144C229.661 237.976 228.73 238.585 227.552 238.971C226.395 239.34 225.061 239.455 223.551 239.316Z" fill="black"/>
<path d="M252.865 240.275C252.824 240.957 252.694 241.405 252.472 241.62C252.27 241.837 251.875 241.928 251.288 241.894L240.87 241.291L242.034 221.419L253.902 222.106L253.802 223.809L243.978 223.241L243.56 230.395L252.019 230.884L251.92 232.588L243.46 232.098L243.013 239.706L252.865 240.275Z" fill="#00FF00"/>
<path d="M252.865 240.275L253.653 240.322L253.7 239.533L252.911 239.487L252.865 240.275ZM252.473 241.62L251.922 241.054L251.909 241.067L251.897 241.081L252.473 241.62ZM240.87 241.291L240.081 241.245L240.035 242.034L240.824 242.079L240.87 241.291ZM242.035 221.419L242.081 220.63L241.292 220.585L241.246 221.373L242.035 221.419ZM253.902 222.106L254.69 222.151L254.736 221.363L253.948 221.316L253.902 222.106ZM253.802 223.809L253.756 224.597L254.544 224.642L254.59 223.854L253.802 223.809ZM243.979 223.241L244.025 222.452L243.237 222.406L243.19 223.195L243.979 223.241ZM243.56 230.394L242.77 230.348L242.724 231.138L243.514 231.183L243.56 230.394ZM252.02 230.884L252.809 230.93L252.855 230.14L252.066 230.095L252.02 230.884ZM251.92 232.588L251.874 233.376L252.662 233.421L252.708 232.633L251.92 232.588ZM243.46 232.098L243.506 231.309L242.717 231.263L242.671 232.052L243.46 232.098ZM243.014 239.706L242.225 239.66L242.178 240.449L242.968 240.495L243.014 239.706ZM252.076 240.23C252.059 240.536 252.022 240.755 251.979 240.902C251.933 241.057 251.897 241.079 251.922 241.054L253.023 242.187C253.27 241.947 253.41 241.637 253.495 241.343C253.583 241.043 253.632 240.697 253.653 240.322L252.076 240.23ZM251.897 241.081C251.936 241.039 251.946 241.058 251.848 241.082C251.748 241.104 251.584 241.12 251.335 241.106L251.242 242.682C251.857 242.718 252.585 242.656 253.049 242.16L251.897 241.081ZM251.335 241.106L240.916 240.503L240.824 242.079L251.242 242.682L251.335 241.106ZM241.658 241.336L242.824 221.464L241.246 221.373L240.081 241.245L241.658 241.336ZM241.988 222.208L253.856 222.894L253.948 221.316L242.081 220.63L241.988 222.208ZM253.114 222.059L253.013 223.763L254.59 223.854L254.69 222.151L253.114 222.059ZM253.848 223.02L244.025 222.452L243.933 224.029L253.756 224.597L253.848 223.02ZM243.19 223.195L242.77 230.348L244.348 230.44L244.768 223.286L243.19 223.195ZM243.514 231.183L251.973 231.673L252.066 230.095L243.606 229.606L243.514 231.183ZM251.231 230.838L251.132 232.541L252.708 232.633L252.809 230.93L251.231 230.838ZM251.966 231.798L243.506 231.309L243.414 232.886L251.874 233.376L251.966 231.798ZM242.671 232.052L242.225 239.66L243.802 239.752L244.248 232.144L242.671 232.052ZM242.968 240.495L252.819 241.065L252.911 239.487L243.06 238.917L242.968 240.495Z" fill="#00FF00"/>
<path d="M267.343 242.432C264.632 242.402 262.539 241.487 261.065 239.688C259.608 237.888 258.901 235.359 258.942 232.098C258.984 228.819 259.754 226.306 261.256 224.56C262.757 222.795 264.872 221.928 267.603 221.959C268.702 221.972 269.723 222.172 270.667 222.562C271.609 222.934 272.418 223.483 273.091 224.211C272.973 224.57 272.808 224.844 272.597 225.031C272.387 225.218 272.148 225.31 271.883 225.307C271.618 225.303 271.372 225.216 271.147 225.042C270.133 224.234 268.925 223.823 267.523 223.807C265.437 223.783 263.845 224.476 262.747 225.885C261.648 227.294 261.081 229.374 261.046 232.123C261.012 234.852 261.526 236.934 262.588 238.368C263.651 239.802 265.224 240.531 267.31 240.555C268.201 240.565 268.998 240.451 269.703 240.213C270.427 239.974 271.142 239.575 271.851 239.014C272.097 239.036 272.304 239.142 272.473 239.334C272.641 239.506 272.724 239.726 272.72 239.991C272.715 240.427 272.454 240.832 271.937 241.205C271.439 241.579 270.772 241.883 269.934 242.121C269.116 242.339 268.253 242.443 267.343 242.432Z" fill="#00FF00"/>
<path d="M261.065 239.688L260.449 240.185L260.453 240.188L261.065 239.688ZM261.256 224.56L261.854 225.074L261.857 225.071L261.256 224.56ZM270.666 222.562L270.364 223.293L270.377 223.298L270.666 222.562ZM273.091 224.211L273.841 224.458L273.987 224.016L273.672 223.674L273.091 224.211ZM272.597 225.031L273.122 225.621L272.597 225.031ZM271.147 225.042L270.654 225.66L270.665 225.669L271.147 225.042ZM262.747 225.885L262.124 225.4L262.747 225.885ZM262.588 238.368L263.223 237.897L262.588 238.368ZM269.703 240.213L269.457 239.462L269.45 239.464L269.703 240.213ZM271.851 239.014L271.921 238.227L271.608 238.2L271.362 238.395L271.851 239.014ZM272.473 239.334L271.879 239.856L271.893 239.872L271.907 239.886L272.473 239.334ZM271.937 241.205L271.476 240.565L271.469 240.569L271.464 240.574L271.937 241.205ZM269.934 242.121L270.138 242.884L270.149 242.88L269.934 242.121ZM267.352 241.642C264.833 241.613 262.977 240.774 261.675 239.186L260.453 240.188C262.101 242.199 264.432 243.189 267.333 243.222L267.352 241.642ZM261.679 239.19C260.378 237.583 259.692 235.258 259.732 232.108L258.152 232.089C258.11 235.46 258.839 238.194 260.449 240.185L261.679 239.19ZM259.732 232.108C259.772 228.936 260.517 226.63 261.854 225.074L260.657 224.046C258.992 225.982 258.195 228.701 258.152 232.089L259.732 232.108ZM261.857 225.071C263.178 223.518 265.05 222.72 267.593 222.749L267.612 221.169C264.694 221.136 262.336 222.072 260.654 224.048L261.857 225.071ZM267.593 222.749C268.599 222.76 269.521 222.944 270.364 223.293L270.969 221.833C269.927 221.402 268.805 221.183 267.612 221.169L267.593 222.749ZM270.377 223.298C271.212 223.626 271.92 224.109 272.511 224.748L273.672 223.674C272.916 222.858 272.007 222.241 270.957 221.828L270.377 223.298ZM272.341 223.965C272.252 224.235 272.15 224.372 272.073 224.44L273.122 225.621C273.466 225.315 273.694 224.906 273.841 224.458L272.341 223.965ZM272.073 224.44C272 224.505 271.949 224.518 271.893 224.517L271.873 226.096C272.348 226.102 272.773 225.93 273.122 225.621L272.073 224.44ZM271.893 224.517C271.811 224.516 271.729 224.493 271.628 224.416L270.665 225.669C271.016 225.939 271.424 226.092 271.873 226.096L271.893 224.517ZM271.64 224.424C270.477 223.498 269.095 223.035 267.532 223.017L267.512 224.597C268.754 224.611 269.789 224.971 270.654 225.66L271.64 224.424ZM267.532 223.017C265.247 222.991 263.401 223.761 262.124 225.4L263.369 226.37C264.289 225.19 265.627 224.575 267.512 224.597L267.532 223.017ZM262.124 225.4C260.875 227.001 260.293 229.28 260.256 232.113L261.836 232.131C261.87 229.468 262.42 227.587 263.369 226.37L262.124 225.4ZM260.256 232.113C260.221 234.93 260.747 237.21 261.953 238.839L263.223 237.897C262.304 236.658 261.803 234.774 261.836 232.131L260.256 232.113ZM261.953 238.839C263.189 240.506 265.014 241.319 267.3 241.345L267.32 239.765C265.435 239.744 264.113 239.098 263.223 237.897L261.953 238.839ZM267.3 241.345C268.263 241.356 269.152 241.232 269.955 240.961L269.45 239.464C268.845 239.669 268.139 239.775 267.32 239.765L267.3 241.345ZM269.949 240.963C270.776 240.691 271.573 240.242 272.341 239.634L271.362 238.395C270.713 238.908 270.077 239.258 269.457 239.462L269.949 240.963ZM271.781 239.801C271.818 239.804 271.84 239.811 271.879 239.856L273.067 238.812C272.769 238.474 272.377 238.268 271.921 238.227L271.781 239.801ZM271.907 239.886C271.918 239.898 271.92 239.903 271.922 239.907C271.924 239.913 271.931 239.935 271.931 239.982L273.51 240C273.516 239.548 273.369 239.121 273.038 238.782L271.907 239.886ZM271.931 239.982C271.929 240.067 271.887 240.267 271.476 240.565L272.399 241.846C273.021 241.396 273.5 240.787 273.51 240L271.931 239.982ZM271.464 240.574C271.068 240.87 270.499 241.141 269.721 241.361L270.149 242.88C271.045 242.627 271.811 242.287 272.411 241.836L271.464 240.574ZM269.732 241.358C268.989 241.555 268.196 241.652 267.352 241.642L267.333 243.222C268.309 243.234 269.245 243.122 270.138 242.884L269.732 241.358Z" fill="#00FF00"/>
<path d="M286.588 242.859C283.991 242.897 282.05 242.318 280.765 241.124C279.497 239.91 278.848 238.052 278.816 235.549L278.653 222.781L280.7 222.752L280.867 235.804C280.891 237.643 281.363 238.992 282.285 239.85C283.205 240.709 284.632 241.124 286.566 241.096C288.518 241.068 289.935 240.62 290.815 239.755C291.694 238.869 292.123 237.498 292.099 235.64L291.932 222.588L293.979 222.559L294.142 235.327C294.175 237.866 293.583 239.752 292.366 240.984C291.149 242.196 289.224 242.821 286.588 242.859Z" fill="#00FF00"/>
<path d="M280.765 241.124L280.218 241.694L280.226 241.703L280.765 241.124ZM278.653 222.781L278.643 221.992L277.853 222.003L277.863 222.793L278.653 222.781ZM280.7 222.752L281.49 222.74L281.48 221.951L280.69 221.962L280.7 222.752ZM282.284 239.85L282.823 239.272L282.284 239.85ZM290.815 239.755L291.368 240.317L291.374 240.311L290.815 239.755ZM291.931 222.588L291.922 221.799L291.132 221.81L291.142 222.6L291.931 222.588ZM293.979 222.559L294.769 222.548L294.759 221.758L293.969 221.77L293.979 222.559ZM292.366 240.984L292.923 241.542L292.928 241.538L292.366 240.984ZM286.578 242.07C284.089 242.105 282.382 241.548 281.303 240.544L280.226 241.703C281.719 243.09 283.895 243.688 286.598 243.649L286.578 242.07ZM281.311 240.553C280.252 239.537 279.637 237.919 279.606 235.537L278.026 235.56C278.06 238.183 278.743 240.281 280.218 241.694L281.311 240.553ZM279.606 235.537L279.443 222.77L277.863 222.793L278.026 235.56L279.606 235.537ZM278.663 223.572L280.71 223.542L280.69 221.962L278.643 221.992L278.663 223.572ZM279.91 222.764L280.077 235.816L281.657 235.792L281.49 222.74L279.91 222.764ZM280.077 235.816C280.103 237.77 280.606 239.366 281.745 240.428L282.823 239.272C282.12 238.616 281.679 237.515 281.657 235.792L280.077 235.816ZM281.745 240.428C282.877 241.484 284.545 241.916 286.576 241.886L286.556 240.307C284.72 240.333 283.533 239.934 282.823 239.272L281.745 240.428ZM286.576 241.886C288.618 241.856 290.278 241.39 291.368 240.317L290.261 239.192C289.591 239.852 288.419 240.279 286.556 240.307L286.576 241.886ZM291.374 240.311C292.464 239.215 292.914 237.596 292.888 235.629L291.309 235.652C291.332 237.401 290.925 238.525 290.255 239.198L291.374 240.311ZM292.888 235.629L292.721 222.577L291.142 222.6L291.309 235.652L292.888 235.629ZM291.941 223.378L293.989 223.349L293.969 221.77L291.922 221.799L291.941 223.378ZM293.189 222.571L293.352 235.337L294.932 235.315L294.769 222.548L293.189 222.571ZM293.352 235.337C293.384 237.766 292.815 239.407 291.805 240.429L292.928 241.538C294.351 240.098 294.966 237.968 294.932 235.315L293.352 235.337ZM291.809 240.424C290.799 241.43 289.115 242.032 286.578 242.07L286.598 243.649C289.332 243.609 291.499 242.961 292.923 241.542L291.809 240.424Z" fill="#00FF00"/>
<path d="M361.916 197.335L362.084 210.754L366.409 217.91L364.66 218.976L360.336 211.821L348.561 205.476L350.456 204.322L360.249 209.642L360.046 198.474L361.916 197.335Z" fill="#00FF00"/>
<path d="M361.916 197.335L362.705 197.324L362.687 195.939L361.508 196.658L361.916 197.335ZM362.084 210.754L361.296 210.766L361.298 210.981L361.41 211.166L362.084 210.754ZM366.408 217.91L366.816 218.586L367.491 218.175L367.082 217.499L366.408 217.91ZM364.66 218.976L363.985 219.387L364.394 220.063L365.068 219.652L364.66 218.976ZM360.336 211.821L361.011 211.409L360.899 211.225L360.71 211.123L360.336 211.821ZM348.561 205.476L348.153 204.801L346.973 205.52L348.187 206.174L348.561 205.476ZM350.456 204.322L350.832 203.625L350.434 203.41L350.047 203.646L350.456 204.322ZM360.249 209.642L359.872 210.338L361.062 210.984L361.038 209.626L360.249 209.642ZM360.046 198.474L359.638 197.799L359.249 198.035L359.258 198.491L360.046 198.474ZM361.128 197.346L361.296 210.766L362.873 210.743L362.705 197.324L361.128 197.346ZM361.41 211.166L365.734 218.321L367.082 217.499L362.759 210.343L361.41 211.166ZM366 217.234L364.251 218.3L365.068 219.652L366.816 218.586L366 217.234ZM365.334 218.564L361.011 211.409L359.661 212.231L363.985 219.387L365.334 218.564ZM360.71 211.123L348.935 204.779L348.187 206.174L359.962 212.518L360.71 211.123ZM348.97 206.153L350.864 204.998L350.047 203.646L348.153 204.801L348.97 206.153ZM350.079 205.018L359.872 210.338L360.625 208.946L350.832 203.625L350.079 205.018ZM361.038 209.626L360.835 198.458L359.258 198.491L359.46 209.657L361.038 209.626ZM360.455 199.15L362.325 198.011L361.508 196.658L359.638 197.799L360.455 199.15Z" fill="#00FF00"/>
<path d="M342.686 207.19C342.905 207.462 343.039 207.65 343.089 207.752C343.232 208.041 343.269 208.308 343.199 208.555C343.123 208.784 342.931 208.975 342.625 209.126L337.942 211.458L345.984 227.785L344.151 228.698L336.108 212.371L330.609 215.107L329.855 213.578L342.686 207.19Z" fill="#00FF00"/>
<path d="M342.686 207.19L343.301 206.693L342.904 206.2L342.337 206.482L342.686 207.19ZM343.199 208.555L343.946 208.807L343.953 208.788L343.958 208.767L343.199 208.555ZM337.942 211.458L337.592 210.75L336.885 211.101L337.233 211.81L337.942 211.458ZM345.984 227.784L346.333 228.494L347.04 228.142L346.691 227.433L345.984 227.784ZM344.151 228.698L343.444 229.049L343.792 229.758L344.499 229.406L344.151 228.698ZM336.108 212.371L336.815 212.019L336.467 211.31L335.759 211.662L336.108 212.371ZM330.609 215.107L329.902 215.46L330.251 216.169L330.958 215.817L330.609 215.107ZM329.855 213.578L329.507 212.869L328.799 213.221L329.148 213.929L329.855 213.578ZM342.071 207.688C342.176 207.818 342.254 207.921 342.31 207.999C342.373 208.086 342.387 208.115 342.383 208.104L343.797 207.4C343.701 207.207 343.509 206.953 343.301 206.693L342.071 207.688ZM342.383 208.104C342.462 208.266 342.443 208.331 342.441 208.343L343.958 208.767C344.094 208.287 344.002 207.817 343.797 207.4L342.383 208.104ZM342.453 208.303C342.458 208.288 342.462 208.29 342.443 208.309C342.421 208.331 342.372 208.37 342.276 208.418L342.974 209.835C343.389 209.629 343.778 209.305 343.946 208.807L342.453 208.303ZM342.276 208.418L337.592 210.75L338.29 212.167L342.974 209.835L342.276 208.418ZM337.233 211.81L345.277 228.137L346.691 227.433L338.649 211.107L337.233 211.81ZM345.634 227.076L343.802 227.989L344.499 229.406L346.333 228.494L345.634 227.076ZM344.858 228.345L336.815 212.019L335.401 212.723L343.444 229.049L344.858 228.345ZM335.759 211.662L330.26 214.399L330.958 215.817L336.457 213.079L335.759 211.662ZM331.316 214.756L330.562 213.225L329.148 213.929L329.902 215.46L331.316 214.756ZM330.204 214.286L343.035 207.899L342.337 206.482L329.507 212.869L330.204 214.286Z" fill="#00FF00"/>
<path d="M320.949 217.601L322.871 216.897L329.659 235.61L327.737 236.314L320.949 217.601Z" fill="#00FF00"/>
<path d="M320.949 217.601L320.679 216.858L319.938 217.13L320.207 217.872L320.949 217.601ZM322.871 216.897L323.613 216.625L323.344 215.882L322.603 216.154L322.871 216.897ZM329.659 235.61L329.929 236.352L330.671 236.081L330.401 235.338L329.659 235.61ZM327.737 236.314L326.995 236.586L327.264 237.328L328.006 237.056L327.737 236.314ZM321.219 218.343L323.141 217.639L322.603 216.154L320.679 216.858L321.219 218.343ZM322.13 217.168L328.918 235.881L330.401 235.338L323.613 216.625L322.13 217.168ZM329.391 234.867L327.467 235.571L328.006 237.056L329.929 236.352L329.391 234.867ZM328.479 236.042L321.691 217.329L320.207 217.872L326.995 236.586L328.479 236.042Z" fill="#00FF00"/>
<path d="M317.949 238.494C317.613 238.768 317.23 238.944 316.801 239.022C316.466 239.084 316.174 239.069 315.927 238.979C315.698 238.887 315.473 238.706 315.251 238.439L311.071 233.537C310.482 232.835 309.833 232.385 309.122 232.188C308.428 231.968 307.531 231.959 306.43 232.16L304.528 232.508L306.019 240.763L304.005 241.133L300.466 221.544L306.817 220.382C309.073 219.968 310.935 220.148 312.404 220.92C313.869 221.673 314.762 222.936 315.083 224.709C315.335 226.107 315.088 227.405 314.341 228.602C313.591 229.78 312.492 230.627 311.043 231.143C311.665 231.491 312.253 231.972 312.807 232.584L317.949 238.494ZM308.41 230.005C310.088 229.699 311.322 229.116 312.111 228.258C312.919 227.398 313.21 226.342 312.985 225.092C312.752 223.805 312.138 222.916 311.144 222.422C310.165 221.908 308.827 221.806 307.129 222.117L302.794 222.909L304.215 230.773L308.41 230.005Z" fill="#00FF00"/>
<path d="M317.949 238.494L318.447 239.107L319.081 238.591L318.545 237.975L317.949 238.494ZM315.927 238.979L315.629 239.712L315.642 239.718L315.657 239.723L315.927 238.979ZM315.251 238.439L315.86 237.933L315.852 237.924L315.251 238.439ZM311.071 233.537L310.466 234.046L310.47 234.05L311.071 233.537ZM309.123 232.188L308.883 232.942L308.897 232.946L308.91 232.949L309.123 232.188ZM304.528 232.508L304.388 231.731L303.611 231.873L303.751 232.651L304.528 232.508ZM306.019 240.763L306.16 241.541L306.936 241.399L306.796 240.622L306.019 240.763ZM304.005 241.133L303.228 241.274L303.368 242.052L304.146 241.91L304.005 241.133ZM300.466 221.544L300.326 220.766L299.549 220.908L299.69 221.685L300.466 221.544ZM312.404 220.92L312.036 221.62L312.042 221.623L312.404 220.92ZM314.341 228.602L315.007 229.026L315.011 229.02L314.341 228.602ZM311.043 231.143L310.78 230.398L309.141 230.982L310.656 231.832L311.043 231.143ZM312.807 232.584L313.402 232.064L313.397 232.059L313.392 232.052L312.807 232.584ZM312.111 228.258L311.536 227.718L311.531 227.724L312.111 228.258ZM311.144 222.422L310.776 223.122L310.784 223.127L310.793 223.131L311.144 222.422ZM302.794 222.909L302.653 222.132L301.876 222.275L302.017 223.052L302.794 222.909ZM304.215 230.773L303.438 230.916L303.578 231.692L304.355 231.551L304.215 230.773ZM317.451 237.882C317.219 238.071 316.96 238.191 316.661 238.245L316.942 239.799C317.501 239.698 318.006 239.466 318.447 239.107L317.451 237.882ZM316.661 238.245C316.423 238.288 316.28 238.267 316.197 238.236L315.657 239.723C316.069 239.872 316.508 239.879 316.942 239.799L316.661 238.245ZM316.226 238.247C316.156 238.219 316.03 238.14 315.86 237.933L314.642 238.944C314.915 239.273 315.24 239.554 315.629 239.712L316.226 238.247ZM315.852 237.924L311.672 233.023L310.47 234.05L314.65 238.953L315.852 237.924ZM311.676 233.028C311.01 232.234 310.232 231.676 309.335 231.426L308.91 232.949C309.433 233.095 309.955 233.436 310.466 234.046L311.676 233.028ZM309.362 231.435C308.496 231.161 307.455 231.17 306.289 231.383L306.571 232.938C307.606 232.749 308.359 232.776 308.883 232.942L309.362 231.435ZM306.289 231.383L304.388 231.731L304.668 233.285L306.571 232.938L306.289 231.383ZM303.751 232.651L305.242 240.906L306.796 240.622L305.305 232.366L303.751 232.651ZM305.878 239.986L303.865 240.355L304.146 241.91L306.16 241.541L305.878 239.986ZM304.782 240.99L301.243 221.401L299.69 221.685L303.228 241.274L304.782 240.99ZM300.607 222.32L306.956 221.158L306.676 219.604L300.326 220.766L300.607 222.32ZM306.956 221.158C309.105 220.765 310.774 220.956 312.036 221.62L312.773 220.22C311.098 219.34 309.04 219.171 306.676 219.604L306.956 221.158ZM312.042 221.623C313.267 222.253 314.025 223.294 314.306 224.851L315.86 224.566C315.501 222.578 314.471 221.094 312.766 220.217L312.042 221.623ZM314.306 224.851C314.524 226.058 314.314 227.156 313.672 228.184L315.011 229.02C315.863 227.654 316.147 226.157 315.86 224.566L314.306 224.851ZM313.676 228.178C313.029 229.193 312.08 229.936 310.78 230.398L311.306 231.888C312.903 231.319 314.151 230.368 315.007 229.026L313.676 228.178ZM310.656 231.832C311.193 232.133 311.715 232.557 312.22 233.115L313.392 232.052C312.79 231.387 312.137 230.849 311.431 230.453L310.656 231.832ZM312.211 233.103L317.353 239.014L318.545 237.975L313.402 232.064L312.211 233.103ZM308.551 230.782C310.323 230.459 311.743 229.824 312.692 228.793L311.531 227.724C310.902 228.408 309.855 228.938 308.271 229.229L308.551 230.782ZM312.687 228.799C313.68 227.739 314.028 226.425 313.762 224.95L312.207 225.234C312.393 226.261 312.158 227.056 311.536 227.718L312.687 228.799ZM313.762 224.95C313.493 223.467 312.755 222.338 311.495 221.714L310.793 223.131C311.522 223.492 312.01 224.144 312.207 225.234L313.762 224.95ZM311.512 221.723C310.311 221.092 308.769 221.013 306.99 221.339L307.27 222.894C308.884 222.598 310.019 222.724 310.776 223.122L311.512 221.723ZM306.99 221.339L302.653 222.132L302.934 223.687L307.27 222.894L306.99 221.339ZM302.017 223.052L303.438 230.916L304.991 230.631L303.571 222.767L302.017 223.052ZM304.355 231.551L308.551 230.782L308.271 229.229L304.074 229.996L304.355 231.551Z" fill="#00FF00"/>
<path d="M253.192 137.081C247.031 127.958 246.562 124.427 235.114 117.164C231.053 114.253 219.989 110.592 212.095 110.483C220.798 100.186 234.195 93.2179 246.107 100.78C258.019 108.342 258.317 123.246 253.192 137.081Z" fill="white"/>
<path d="M221.568 198.975C245.222 194.629 260.771 171.37 256.297 147.026C251.824 122.682 229.022 106.471 205.368 110.818C181.714 115.165 166.165 138.423 170.638 162.767C175.112 187.111 197.914 203.322 221.568 198.975Z" fill="white"/>
<path d="M220.789 194.737C242.168 190.808 256.222 169.786 252.179 147.783C248.135 125.78 227.526 111.128 206.146 115.057C184.767 118.985 170.713 140.007 174.757 162.011C178.8 184.014 199.409 198.666 220.789 194.737Z" fill="black"/>
<path d="M201.509 189.413C203.7 184.501 208.051 174.752 216.121 156.665C224.192 138.579 222.88 141.519 230.734 123.918C247.16 131.788 253.934 152.829 245.864 170.915C237.794 189.001 217.935 197.282 201.509 189.413Z" fill="#ED1C24"/>
<path d="M230.916 123.88C227.949 128.336 222.058 137.179 211.13 153.585C200.203 169.99 201.979 167.323 191.345 183.289C176.411 172.709 173.163 150.834 184.091 134.428C195.018 118.023 215.982 113.301 230.916 123.88Z" fill="#ED1C24"/>
<path d="M221.751 128.767C219.444 132.128 214.863 138.8 206.365 151.175C197.868 163.551 199.249 161.539 190.98 173.583C181.12 166.388 180.015 150.522 188.513 138.147C197.011 125.771 211.892 121.572 221.751 128.767Z" fill="black"/>
<path d="M221.751 128.767C219.444 132.128 214.863 138.8 206.365 151.175C197.868 163.551 199.249 161.539 190.98 173.583C181.12 166.388 180.015 150.522 188.513 138.147C197.011 125.771 211.892 121.572 221.751 128.767Z" fill="black"/>
<path d="M217.235 130.822C215.287 133.658 211.422 139.287 204.252 149.728C197.083 160.17 198.249 158.473 191.27 168.635C183.686 163.101 183.35 150.149 190.519 139.706C197.689 129.265 209.65 125.287 217.235 130.822Z" fill="white"/>
<path d="M212.112 132.879C210.561 135.137 207.483 139.62 201.774 147.935C196.065 156.25 196.994 154.897 191.437 162.99C188.191 158.665 187.825 150.237 193.535 141.922C199.244 133.607 206.557 131.192 212.112 132.879Z" fill="black"/>
<path d="M209.31 183.887C211.045 180.176 214.487 172.812 220.875 159.148C227.263 145.486 226.224 147.707 232.44 134.409C243.301 139.854 246.927 155.344 240.54 169.007C234.152 182.67 220.17 189.332 209.31 183.887Z" fill="black"/>
<path d="M209.31 183.887C211.045 180.176 214.487 172.812 220.875 159.148C227.263 145.486 226.224 147.707 232.44 134.409C243.301 139.854 246.927 155.344 240.54 169.007C234.152 182.67 220.17 189.332 209.31 183.887Z" fill="black"/>
<path d="M213.429 181.094C214.893 177.963 217.798 171.749 223.187 160.221C228.576 148.693 227.701 150.567 232.945 139.347C241.3 143.535 243.703 156.277 238.314 167.805C232.925 179.333 221.784 185.282 213.429 181.094Z" fill="white"/>
<path d="M218.144 178.196C219.309 175.704 221.623 170.755 225.915 161.575C230.206 152.395 229.508 153.888 233.686 144.954C237.574 148.679 239.282 156.946 234.991 166.126C230.699 175.305 223.884 178.925 218.144 178.196Z" fill="black"/>
<path d="M238.569 103.84C239.232 101.839 239.694 100.734 239.737 98.6133C239.053 96.1029 238.156 95.4978 236.444 94.5917" stroke="white" stroke-width="6"/>
<path d="M235.007 98.3608C237.509 97.9011 239.154 95.441 238.68 92.8662C238.207 90.2914 235.796 88.5767 233.294 89.0365C230.792 89.4962 229.147 91.9563 229.62 94.5311C230.094 97.106 232.505 98.8206 235.007 98.3608Z" fill="white"/>
<path d="M234.129 95.8934C235.493 95.6426 236.39 94.3008 236.132 92.8963C235.874 91.4919 234.559 90.5566 233.194 90.8074C231.829 91.0582 230.932 92.4 231.19 93.8045C231.449 95.2089 232.764 96.1442 234.129 95.8934Z" fill="black"/>
<path d="M237.823 104.416C238.441 102.166 239.213 100.427 239.203 98.0279C237.879 95.4285 236.82 95.1352 235.464 93.8955" stroke="black" stroke-width="2"/>
<path d="M244.698 106.828C245.734 105.005 246.244 103.922 247.77 102.51C250.056 101.417 251.083 101.73 252.86 102.488" stroke="white" stroke-width="6"/>
<path d="M251.031 106.07C249.741 103.801 250.475 100.907 252.671 99.6048C254.866 98.3031 257.691 99.087 258.981 101.356C260.271 103.624 259.536 106.519 257.341 107.82C255.146 109.122 252.32 108.338 251.031 106.07Z" fill="white"/>
<path d="M253.412 105.157C252.708 103.92 253.109 102.341 254.306 101.631C255.504 100.921 257.045 101.349 257.748 102.586C258.452 103.824 258.051 105.402 256.854 106.112C255.656 106.822 254.115 106.395 253.412 105.157Z" fill="black"/>
<path d="M244.761 107.79C246.009 105.841 246.782 104.102 248.547 102.549C251.314 101.902 252.217 102.545 254.007 102.807" stroke="black" stroke-width="2"/>
<path d="M251.178 133.07C249.397 130.33 244.623 122.883 234.984 116.767C231.556 114.33 219.836 110.788 215.896 110.198C222.814 102.215 234.282 97.0965 244.312 103.463C254.341 109.83 255.05 122.164 251.178 133.07Z" fill="black"/>
</svg>
