<svg width="400" height="400" viewBox="0 0 400 400" fill="none" xmlns="http://www.w3.org/2000/svg">
<circle cx="200" cy="200" r="200" fill="black"/>
<path d="M283.917 188.352C274.774 167.653 275.141 160.353 254.525 141.448C247.337 134.064 226.155 122.572 210.101 119.425C231.7 101.869 261.622 92.7741 283.073 112.455C304.524 132.136 299.546 162.329 283.917 188.352Z" fill="white"/>
<path d="M196.26 301.548C246.109 301.548 286.52 260.371 286.52 209.577C286.52 158.782 246.109 117.605 196.26 117.605C146.411 117.605 106 158.782 106 209.577C106 260.371 146.411 301.548 196.26 301.548Z" fill="white"/>
<path d="M196.26 292.705C241.316 292.705 277.841 255.487 277.841 209.577C277.841 163.666 241.316 126.448 196.26 126.448C151.204 126.448 114.679 163.666 114.679 209.577C114.679 255.487 151.204 292.705 196.26 292.705Z" fill="black"/>
<path d="M158.952 274.808C165.26 265.707 177.781 247.642 201.008 214.131C224.236 180.62 220.46 186.068 243.065 153.454C273.604 175.431 279.53 220.413 256.303 253.924C233.076 287.435 189.49 296.786 158.952 274.808Z" fill="#ED1C24"/>
<path d="M243.451 153.446C235.732 161.338 220.41 177.003 191.988 206.061C163.566 235.12 168.186 230.396 140.525 258.677C114.044 231.784 115.618 186.427 144.04 157.368C172.462 128.309 216.97 126.553 243.451 153.446Z" fill="#ED1C24"/>
<path d="M222.937 159.91C216.973 165.838 205.136 177.604 183.177 199.431C161.218 221.258 164.788 217.71 143.417 238.952C126.012 220.772 129.704 188.34 151.663 166.513C173.622 144.687 205.532 141.73 222.937 159.91Z" fill="black"/>
<path d="M222.937 159.91C216.973 165.838 205.136 177.604 183.177 199.431C161.218 221.258 164.788 217.71 143.417 238.952C126.012 220.772 129.704 188.34 151.663 166.513C173.622 144.687 205.532 141.73 222.937 159.91Z" fill="black"/>
<path d="M212.958 162.382C207.926 167.384 197.939 177.312 179.411 195.728C160.883 214.144 163.895 211.15 145.863 229.074C132.475 215.089 136.642 188.823 155.17 170.407C173.698 151.99 199.57 148.397 212.958 162.382Z" fill="white"/>
<path d="M201.745 164.634C197.738 168.617 189.785 176.523 175.031 191.188C160.277 205.853 162.676 203.468 148.317 217.741C143.319 207.808 145.733 190.66 160.486 175.995C175.24 161.33 191.053 159.169 201.745 164.634Z" fill="black"/>
<path d="M176.924 266.548C181.851 259.702 191.629 246.114 209.769 220.906C227.909 195.698 224.96 199.796 242.614 175.263C262.714 190.281 264.303 222.891 246.163 248.098C228.024 273.305 197.024 281.567 176.924 266.548Z" fill="black"/>
<path d="M176.924 266.548C181.851 259.702 191.629 246.114 209.769 220.906C227.909 195.698 224.96 199.796 242.614 175.263C262.714 190.281 264.303 222.891 246.163 248.098C228.024 273.305 197.024 281.567 176.924 266.548Z" fill="black"/>
<path d="M186.368 262.439C190.525 256.663 198.776 245.197 214.081 223.928C229.386 202.659 226.898 206.117 241.794 185.417C257.255 196.97 257.382 223.577 242.077 244.846C226.771 266.114 201.83 273.992 186.368 262.439Z" fill="white"/>
<path d="M197.066 258.34C200.376 253.739 206.946 244.61 219.134 227.673C231.321 210.737 229.34 213.49 241.201 197.007C247.733 205.968 248.119 223.287 235.931 240.224C223.743 257.16 208.494 261.94 197.066 258.34Z" fill="black"/>
<path d="M266.559 115.836C268.661 112.042 270.018 109.984 270.898 105.719C270.444 100.399 268.841 98.8446 265.691 96.3808" stroke="white" stroke-width="6"/>
<path d="M261.351 103.456C266.624 103.456 270.898 99.1003 270.898 93.7278C270.898 88.3553 266.624 84 261.351 84C256.079 84 251.805 88.3553 251.805 93.7278C251.805 99.1003 256.079 103.456 261.351 103.456Z" fill="white"/>
<path d="M260.483 98.1495C263.359 98.1495 265.691 95.7739 265.691 92.8434C265.691 89.913 263.359 87.5374 260.483 87.5374C257.608 87.5374 255.276 89.913 255.276 92.8434C255.276 95.7739 257.608 98.1495 260.483 98.1495Z" fill="black"/>
<path d="M264.823 116.721C266.925 112.409 269.15 109.186 270.03 104.34C268.304 98.6021 266.256 97.6175 263.955 94.6121" stroke="black" stroke-width="2"/>
<path d="M277.934 124.141C280.73 120.844 282.174 118.848 285.817 116.565C290.886 115.205 292.862 116.218 296.2 118.408" stroke="white" stroke-width="6"/>
<path d="M291.129 124.958C289.35 119.9 291.931 114.331 296.894 112.518C301.858 110.705 307.323 113.335 309.103 118.392C310.882 123.45 308.301 129.019 303.338 130.832C298.374 132.645 292.908 130.015 291.129 124.958Z" fill="white"/>
<path d="M296.324 124C295.353 121.241 296.761 118.203 299.468 117.214C302.176 116.225 305.157 117.66 306.127 120.418C307.098 123.177 305.69 126.215 302.983 127.204C300.276 128.193 297.294 126.758 296.324 124Z" fill="black"/>
<path d="M277.703 126.104C280.977 122.633 283.204 119.411 287.384 116.931C293.266 116.651 294.868 118.283 298.421 119.476" stroke="black" stroke-width="2"/>
<path d="M281.313 179.509C278.709 173.319 271.766 156.516 254.408 140.598C248.333 134.408 225.768 122.911 217.957 120.258C235.051 106.712 260.346 100.635 278.407 117.205C296.468 133.776 293.293 158.933 281.313 179.509Z" fill="black"/>
<path d="M269.674 343.747L272.066 342.699L282.179 365.904L279.786 366.952L269.674 343.747Z" fill="#00FF00"/>
<path d="M269.674 343.747L269.273 342.826L268.349 343.231L268.751 344.151L269.674 343.747ZM272.066 342.699L272.99 342.294L272.588 341.373L271.665 341.778L272.066 342.699ZM282.179 365.904L282.581 366.825L283.503 366.42L283.103 365.499L282.179 365.904ZM279.786 366.952L278.864 367.357L279.265 368.278L280.188 367.873L279.786 366.952ZM270.075 344.668L272.468 343.619L271.665 341.778L269.273 342.826L270.075 344.668ZM271.144 343.103L281.256 366.308L283.103 365.499L272.99 342.294L271.144 343.103ZM281.778 364.983L279.385 366.031L280.188 367.873L282.581 366.825L281.778 364.983ZM280.71 366.548L270.596 343.342L268.751 344.151L278.864 367.357L280.71 366.548Z" fill="#00FF00"/>
<path d="M248.093 380.414C247.668 380.749 247.187 380.962 246.649 381.054C246.227 381.126 245.862 381.105 245.554 380.991C245.269 380.872 244.99 380.646 244.716 380.311L239.555 374.177C238.827 373.299 238.021 372.733 237.134 372.479C236.268 372.197 235.144 372.174 233.763 372.41L231.375 372.818L233.119 383.078L230.59 383.51L226.454 359.164L234.424 357.803C237.256 357.319 239.586 357.566 241.414 358.542C243.239 359.495 244.337 361.073 244.711 363.276C245.007 365.015 244.678 366.622 243.725 368.097C242.767 369.549 241.377 370.585 239.556 371.207C240.329 371.647 241.058 372.25 241.742 373.016L248.093 380.414ZM236.275 369.762C238.382 369.403 239.936 368.696 240.937 367.642C241.962 366.584 242.342 365.279 242.078 363.725C241.806 362.125 241.051 361.014 239.813 360.39C238.595 359.739 236.92 359.596 234.79 359.959L229.348 360.888L231.009 370.662L236.275 369.762Z" fill="#00FF00"/>
<path d="M248.093 380.414L248.707 381.18L249.509 380.548L248.847 379.777L248.093 380.414ZM245.554 380.991L245.169 381.895L245.186 381.903L245.205 381.909L245.554 380.991ZM244.715 380.311L245.485 379.692L245.477 379.681L244.715 380.311ZM239.555 374.177L238.789 374.801L238.794 374.807L239.555 374.177ZM237.134 372.479L236.823 373.411L236.839 373.416L236.856 373.421L237.134 372.479ZM231.375 372.818L231.211 371.852L230.235 372.018L230.4 372.984L231.375 372.818ZM233.118 383.078L233.283 384.044L234.258 383.878L234.094 382.912L233.118 383.078ZM230.59 383.51L229.615 383.676L229.779 384.642L230.755 384.476L230.59 383.51ZM226.454 359.164L226.289 358.197L225.314 358.364L225.478 359.33L226.454 359.164ZM241.414 358.542L240.942 359.405L240.95 359.41L241.414 358.542ZM243.725 368.097L244.551 368.631L244.556 368.624L243.725 368.097ZM239.556 371.207L239.237 370.28L237.175 370.983L239.06 372.057L239.556 371.207ZM241.742 373.016L242.496 372.379L242.49 372.372L242.484 372.365L241.742 373.016ZM240.937 367.642L240.225 366.965L240.218 366.972L240.937 367.642ZM239.813 360.39L239.341 361.253L239.352 361.259L239.362 361.264L239.813 360.39ZM229.348 360.888L229.184 359.922L228.208 360.089L228.373 361.055L229.348 360.888ZM231.009 370.662L230.033 370.828L230.197 371.794L231.173 371.628L231.009 370.662ZM247.48 379.648C247.187 379.879 246.859 380.024 246.484 380.088L246.813 382.02C247.514 381.901 248.151 381.619 248.707 381.18L247.48 379.648ZM246.484 380.088C246.186 380.139 246.006 380.111 245.903 380.072L245.205 381.909C245.718 382.1 246.269 382.113 246.813 382.02L246.484 380.088ZM245.939 380.086C245.853 380.05 245.696 379.95 245.485 379.692L243.946 380.929C244.283 381.342 244.684 381.694 245.169 381.895L245.939 380.086ZM245.477 379.681L240.315 373.547L238.794 374.807L243.955 380.94L245.477 379.681ZM240.32 373.553C239.497 372.56 238.532 371.858 237.413 371.537L236.856 373.421C237.509 373.608 238.157 374.038 238.789 374.801L240.32 373.553ZM237.446 371.547C236.365 371.196 235.061 371.194 233.598 371.444L233.927 373.376C235.226 373.155 236.17 373.198 236.823 373.411L237.446 371.547ZM233.598 371.444L231.211 371.852L231.539 373.784L233.927 373.376L233.598 371.444ZM230.4 372.984L232.143 383.245L234.094 382.912L232.35 372.651L230.4 372.984ZM232.954 382.112L230.426 382.544L230.755 384.476L233.283 384.044L232.954 382.112ZM231.566 383.343L227.429 358.997L225.478 359.33L229.615 383.676L231.566 383.343ZM226.618 360.13L234.588 358.769L234.26 356.837L226.289 358.197L226.618 360.13ZM234.588 358.769C237.284 358.309 239.371 358.566 240.942 359.405L241.886 357.679C239.802 356.565 237.228 356.33 234.26 356.837L234.588 358.769ZM240.95 359.41C242.475 360.207 243.407 361.508 243.736 363.442L245.687 363.109C245.267 360.638 244.001 358.784 241.878 357.674L240.95 359.41ZM243.736 363.442C243.991 364.943 243.712 366.303 242.892 367.57L244.556 368.624C245.644 366.941 246.023 365.086 245.687 363.109L243.736 363.442ZM242.897 367.563C242.073 368.813 240.872 369.722 239.237 370.28L239.874 372.133C241.882 371.449 243.46 370.285 244.551 368.631L242.897 367.563ZM239.06 372.057C239.728 372.437 240.376 372.969 241 373.668L242.484 372.365C241.74 371.532 240.93 370.857 240.051 370.356L239.06 372.057ZM240.988 373.653L247.339 381.051L248.847 379.777L242.496 372.379L240.988 373.653ZM236.439 370.728C238.663 370.349 240.452 369.58 241.656 368.313L240.218 366.972C239.42 367.812 238.101 368.457 236.111 368.796L236.439 370.728ZM241.649 368.32C242.911 367.018 243.364 365.391 243.053 363.559L241.103 363.892C241.319 365.167 241.013 366.151 240.225 366.965L241.649 368.32ZM243.053 363.559C242.74 361.715 241.832 360.305 240.264 359.516L239.362 361.264C240.271 361.722 240.872 362.536 241.103 363.892L243.053 363.559ZM240.285 359.527C238.79 358.728 236.86 358.612 234.626 358.993L234.954 360.925C236.981 360.579 238.399 360.75 239.341 361.253L240.285 359.527ZM234.626 358.993L229.184 359.922L229.512 361.854L234.954 360.925L234.626 358.993ZM228.373 361.055L230.033 370.828L231.984 370.495L230.323 360.722L228.373 361.055ZM231.173 371.628L236.439 370.728L236.111 368.796L230.844 369.695L231.173 371.628Z" fill="#00FF00"/>
<path d="M338.446 286.775L343.992 303.183L352.443 309.856L350.598 312.023L342.148 305.35L324.357 303.329L326.355 300.981L341.17 302.716L336.474 289.093L338.446 286.775Z" fill="#00FF00"/>
<path d="M338.446 286.775L339.465 286.374L338.893 284.682L337.649 286.144L338.446 286.775ZM343.992 303.183L342.975 303.583L343.063 303.848L343.282 304.019L343.992 303.183ZM352.443 309.856L353.24 310.486L353.952 309.65L353.153 309.02L352.443 309.856ZM350.598 312.023L349.886 312.859L350.685 313.489L351.396 312.653L350.598 312.023ZM342.148 305.35L342.86 304.514L342.643 304.342L342.356 304.31L342.148 305.35ZM324.357 303.329L323.559 302.698L322.313 304.161L324.148 304.369L324.357 303.329ZM326.355 300.981L326.567 299.941L325.965 299.871L325.557 300.351L326.355 300.981ZM341.17 302.716L340.958 303.756L342.757 303.967L342.187 302.309L341.17 302.716ZM336.474 289.093L335.676 288.462L335.266 288.943L335.458 289.499L336.474 289.093ZM337.429 287.175L342.975 303.583L345.011 302.782L339.465 286.374L337.429 287.175ZM343.282 304.019L351.731 310.692L353.153 309.02L344.704 302.347L343.282 304.019ZM351.644 309.225L349.799 311.392L351.396 312.653L353.24 310.486L351.644 309.225ZM351.309 311.187L342.86 304.514L341.436 306.187L349.886 312.859L351.309 311.187ZM342.356 304.31L324.565 302.289L324.148 304.369L341.939 306.391L342.356 304.31ZM325.155 303.959L327.153 301.612L325.557 300.351L323.559 302.698L325.155 303.959ZM326.144 302.021L340.958 303.756L341.382 301.676L326.567 299.941L326.144 302.021ZM342.187 302.309L337.491 288.686L335.458 289.499L340.154 303.122L342.187 302.309ZM337.272 289.723L339.245 287.405L337.649 286.144L335.676 288.462L337.272 289.723Z" fill="#00FF00"/>
<path d="M308.242 318.095C308.618 318.436 308.853 318.673 308.949 318.808C309.218 319.19 309.333 319.565 309.292 319.934C309.233 320.28 309.005 320.597 308.604 320.884L302.45 325.298L317.719 346.867L315.311 348.594L300.043 327.025L292.819 332.205L291.387 330.183L308.242 318.095Z" fill="#00FF00"/>
<path d="M308.242 318.095L309.005 317.242L308.325 316.624L307.58 317.159L308.242 318.095ZM309.292 319.934L310.417 320.124L310.422 320.095L310.425 320.065L309.292 319.934ZM302.451 325.298L301.788 324.361L300.859 325.027L301.522 325.964L302.451 325.298ZM317.719 346.867L318.382 347.803L319.31 347.137L318.648 346.2L317.719 346.867ZM315.311 348.593L314.383 349.26L315.046 350.196L315.974 349.53L315.311 348.593ZM300.043 327.024L300.971 326.358L300.309 325.422L299.38 326.088L300.043 327.024ZM292.819 332.205L291.891 332.871L292.553 333.807L293.482 333.141L292.819 332.205ZM291.388 330.183L290.725 329.247L289.796 329.913L290.459 330.849L291.388 330.183ZM307.479 318.948C307.659 319.111 307.795 319.241 307.894 319.339C308.001 319.449 308.03 319.487 308.019 319.474L309.877 318.142C309.697 317.886 309.363 317.566 309.005 317.242L307.479 318.948ZM308.019 319.474C308.172 319.688 308.16 319.785 308.159 319.803L310.425 320.065C310.506 319.346 310.267 318.692 309.877 318.142L308.019 319.474ZM308.167 319.743C308.17 319.72 308.177 319.722 308.154 319.753C308.127 319.79 308.068 319.858 307.94 319.949L309.267 321.821C309.811 321.43 310.292 320.877 310.417 320.124L308.167 319.743ZM307.94 319.949L301.788 324.361L303.113 326.234L309.267 321.821L307.94 319.949ZM301.522 325.964L316.791 347.533L318.648 346.2L303.379 324.631L301.522 325.964ZM317.057 345.93L314.649 347.657L315.974 349.53L318.382 347.803L317.057 345.93ZM316.24 347.927L300.971 326.358L299.114 327.69L314.383 349.26L316.24 347.927ZM299.38 326.088L292.157 331.269L293.482 333.141L300.705 327.961L299.38 326.088ZM293.748 331.539L292.317 329.516L290.459 330.849L291.891 332.871L293.748 331.539ZM292.05 331.119L308.905 319.031L307.58 317.159L290.725 329.247L292.05 331.119Z" fill="#00FF00"/>
<path d="M183.596 386.612C180.167 386.075 177.746 384.842 176.332 382.914C174.947 380.963 174.526 378.27 175.068 374.834L177.832 357.303L180.535 357.726L177.709 375.648C177.311 378.173 177.618 380.128 178.63 381.513C179.642 382.899 181.425 383.791 183.978 384.191C186.555 384.595 188.525 384.303 189.886 383.316C191.251 382.303 192.134 380.521 192.537 377.97L195.363 360.048L198.066 360.472L195.301 378.002C194.751 381.49 193.531 383.94 191.642 385.351C189.757 386.736 187.075 387.156 183.596 386.612Z" fill="#00FF00"/>
<path d="M176.332 382.914L175.478 383.572L175.488 383.585L176.332 382.914ZM177.832 357.303L178.003 356.219L176.961 356.055L176.789 357.14L177.832 357.303ZM180.535 357.726L181.578 357.89L181.749 356.805L180.706 356.642L180.535 357.726ZM178.63 381.513L179.475 380.843L178.63 381.513ZM189.886 383.316L190.483 384.212L190.493 384.205L189.886 383.316ZM195.363 360.048L195.534 358.964L194.491 358.801L194.32 359.885L195.363 360.048ZM198.066 360.472L199.109 360.635L199.28 359.55L198.237 359.387L198.066 360.472ZM191.642 385.351L192.245 386.244L192.252 386.238L191.642 385.351ZM183.767 385.527C180.48 385.012 178.363 383.861 177.176 382.242L175.488 383.585C177.129 385.824 179.855 387.137 183.425 387.696L183.767 385.527ZM177.186 382.255C176.028 380.625 175.594 378.268 176.11 374.997L174.025 374.671C173.457 378.272 173.867 381.302 175.478 383.572L177.186 382.255ZM176.11 374.997L178.875 357.467L176.789 357.14L174.025 374.671L176.11 374.997ZM177.661 358.388L180.364 358.811L180.706 356.642L178.003 356.219L177.661 358.388ZM179.492 357.563L176.666 375.484L178.751 375.811L181.578 357.89L179.492 357.563ZM176.666 375.484C176.243 378.168 176.533 380.47 177.785 382.183L179.475 380.843C178.702 379.785 178.378 378.177 178.751 375.811L176.666 375.484ZM177.785 382.183C179.03 383.887 181.125 384.855 183.807 385.275L184.149 383.106C181.725 382.727 180.255 381.91 179.475 380.843L177.785 382.183ZM183.807 385.275C186.503 385.698 188.797 385.435 190.483 384.212L189.288 382.419C188.252 383.171 186.608 383.492 184.149 383.106L183.807 385.275ZM190.493 384.205C192.184 382.95 193.154 380.833 193.579 378.133L191.494 377.806C191.115 380.208 190.318 381.655 189.279 382.426L190.493 384.205ZM193.579 378.133L196.406 360.212L194.32 359.885L191.494 377.806L193.579 378.133ZM195.192 361.133L197.895 361.556L198.237 359.387L195.534 358.964L195.192 361.133ZM197.023 360.308L194.258 377.839L196.344 378.166L199.109 360.635L197.023 360.308ZM194.258 377.839C193.733 381.173 192.601 383.292 191.032 384.464L192.252 386.238C194.462 384.588 195.769 381.808 196.344 378.166L194.258 377.839ZM191.039 384.459C189.474 385.608 187.116 386.052 183.767 385.527L183.425 387.696C187.033 388.261 190.039 387.864 192.245 386.244L191.039 384.459Z" fill="#00FF00"/>
<path d="M98.6189 352.131C97.9769 352.882 97.4219 353.276 96.9536 353.314C96.5086 353.371 95.9277 353.1 95.2111 352.5L82.4864 341.855L101.208 319.952L115.701 332.077L114.097 333.954L102.1 323.918L95.3601 331.803L105.692 340.447L104.088 342.324L93.7553 333.68L86.5875 342.066L98.6189 352.131Z" fill="#00FF00"/>
<path d="M98.6188 352.131L99.5819 352.937L100.325 352.068L99.3617 351.262L98.6188 352.131ZM96.9536 353.314L96.7456 352.133L96.7173 352.135L96.6894 352.139L96.9536 353.314ZM82.4864 341.855L81.5232 341.049L80.7804 341.918L81.7434 342.724L82.4864 341.855ZM101.208 319.952L101.951 319.083L100.988 318.277L100.245 319.146L101.208 319.952ZM115.701 332.077L116.664 332.882L117.407 332.013L116.444 331.207L115.701 332.077ZM114.097 333.954L113.354 334.823L114.317 335.629L115.06 334.76L114.097 333.954ZM102.1 323.918L102.843 323.049L101.88 322.243L101.137 323.112L102.1 323.918ZM95.3601 331.803L94.397 330.997L93.654 331.866L94.6172 332.672L95.3601 331.803ZM105.692 340.447L106.655 341.252L107.399 340.383L106.435 339.578L105.692 340.447ZM104.088 342.324L103.345 343.193L104.308 343.999L105.051 343.13L104.088 342.324ZM93.7553 333.68L94.4983 332.811L93.5351 332.005L92.7922 332.874L93.7553 333.68ZM86.5875 342.066L85.6245 341.26L84.8815 342.129L85.8447 342.935L86.5875 342.066ZM97.6556 351.325C97.3674 351.663 97.1309 351.881 96.9482 352.011C96.7566 352.147 96.6923 352.137 96.7456 352.133L97.1615 354.495C97.6831 354.453 98.1305 354.228 98.4939 353.97C98.8662 353.705 99.2282 353.351 99.5819 352.937L97.6556 351.325ZM96.6894 352.139C96.7746 352.128 96.7723 352.161 96.6266 352.093C96.4804 352.025 96.2581 351.886 95.9539 351.631L94.4681 353.369C95.2185 353.997 96.1972 354.62 97.2178 354.489L96.6894 352.139ZM95.9539 351.631L83.2293 340.986L81.7434 342.724L94.4681 353.369L95.9539 351.631ZM83.4495 342.661L102.172 320.758L100.245 319.146L81.5232 341.049L83.4495 342.661ZM100.465 320.821L114.958 332.946L116.444 331.207L101.951 319.083L100.465 320.821ZM114.738 331.271L113.133 333.148L115.06 334.76L116.664 332.882L114.738 331.271ZM114.839 333.085L102.843 323.049L101.357 324.787L113.354 334.823L114.839 333.085ZM101.137 323.112L94.397 330.997L96.3233 332.609L103.063 324.723L101.137 323.112ZM94.6172 332.672L104.949 341.316L106.435 339.578L96.1031 330.934L94.6172 332.672ZM104.729 339.641L103.125 341.518L105.051 343.13L106.655 341.252L104.729 339.641ZM104.831 341.455L94.4983 332.811L93.0124 334.549L103.345 343.193L104.831 341.455ZM92.7922 332.874L85.6245 341.26L87.5507 342.872L94.7185 334.486L92.7922 332.874ZM85.8447 342.935L97.8758 353L99.3617 351.262L87.3305 341.197L85.8447 342.935Z" fill="#00FF00"/>
<path d="M46.2431 300.415L41.3855 300.847L41.3877 300.883L41.3903 300.919L46.2431 300.415ZM51.1197 292.8L49.0383 297.212L49.0504 297.217L49.0624 297.222L51.1197 292.8ZM52.3762 294.053L55.2888 297.812L58.5412 295.306L56.7323 291.773L52.3762 294.053ZM54.1572 309.18L56.5204 304.903L56.5006 304.893L56.4806 304.882L54.1572 309.18ZM61.3438 307.343L57.1832 304.983L57.151 305.036L57.1202 305.091L61.3438 307.343ZM62.1114 304.136L57.2502 304.082L57.2482 304.129L57.247 304.175L62.1114 304.136ZM61.6387 298.863L56.8342 299.777L56.8382 299.8L56.8422 299.824L61.6387 298.863ZM61.1467 292.699L56.2922 292.528L56.2896 292.567L56.2875 292.605L61.1467 292.699ZM62.1975 288.837L58.1381 286.316L58.0905 286.388L58.0453 286.463L62.1975 288.837ZM71.4463 286.403L69.1484 290.713L69.1698 290.724L69.1913 290.735L71.4463 286.403ZM77.4826 299.136L72.714 298.333L72.7052 298.376L72.6973 298.418L77.4826 299.136ZM74.0207 304.85L72.2827 309.396L74.9168 310.307L77.1003 308.474L74.0207 304.85ZM73.1336 301.432L76.849 304.417L76.8725 304.389L76.8955 304.361L73.1336 301.432ZM74.7358 297.498L69.9015 297.108L69.8989 297.131L69.8962 297.155L74.7358 297.498ZM64.5759 290.839L60.3789 288.54L60.3502 288.59L60.3226 288.639L64.5759 290.839ZM64.3584 298.002L59.5444 298.855L59.545 298.859L64.3584 298.002ZM64.9551 305.35L60.0939 305.296L60.0931 305.313L60.0925 305.331L64.9551 305.35ZM55.7162 312.897L54.8563 317.656L54.8797 317.66L54.9031 317.663L55.7162 312.897ZM51.1542 310.696L47.8379 314.32L47.8523 314.333L47.8669 314.346L51.1542 310.696ZM52.1144 303.655C51.4961 302.307 51.1812 301.065 51.096 299.911L41.3903 300.919C41.5668 303.307 42.2044 305.626 43.2292 307.86L52.1144 303.655ZM51.1008 299.984C51.0301 298.775 51.2073 297.988 51.4262 297.48L42.4917 293.954C41.5478 296.145 41.2478 298.489 41.3855 300.847L51.1008 299.984ZM51.4262 297.48C51.5258 297.249 51.5992 297.169 51.6021 297.166C51.6049 297.163 51.5996 297.169 51.5879 297.178C51.5761 297.186 51.5697 297.189 51.5749 297.186L47.6057 288.534C45.1607 289.691 43.4827 291.654 42.4917 293.954L51.4262 297.48ZM51.5749 297.186C51.3171 297.308 50.917 297.442 50.4099 297.462C49.8916 297.483 49.4192 297.378 49.0383 297.212L53.2013 288.388C51.3128 287.565 49.3115 287.727 47.6057 288.534L51.5749 297.186ZM49.0624 297.222C48.7567 297.091 48.5051 296.911 48.317 296.723C48.1361 296.542 48.049 296.391 48.0201 296.334L56.7323 291.773C56.0357 290.412 54.8971 289.116 53.1772 288.378L49.0624 297.222ZM49.4634 290.295C46.9455 292.235 45.1385 294.8 44.5023 297.95L54.0428 299.54C54.1406 299.056 54.4027 298.494 55.2888 297.812L49.4634 290.295ZM44.5023 297.95C43.8859 301 44.4727 303.993 45.7439 306.765L54.6291 302.56C53.9476 301.074 53.925 300.123 54.0428 299.54L44.5023 297.95ZM45.7439 306.765C47.0453 309.601 48.9944 312.044 51.8337 313.479L56.4806 304.882C56.0261 304.653 55.3281 304.084 54.6291 302.56L45.7439 306.765ZM51.7939 313.458C54.7413 314.982 58.0198 315.082 61.1488 313.601L57.1796 304.949C57.0667 305.002 56.9945 305.023 56.9595 305.031C56.9264 305.038 56.9105 305.038 56.9027 305.038C56.8944 305.038 56.8671 305.037 56.813 305.023C56.7569 305.008 56.6599 304.975 56.5204 304.903L51.7939 313.458ZM61.1488 313.601C62.9316 312.757 64.514 311.448 65.5674 309.595L57.1202 305.091C57.1408 305.055 57.1657 305.018 57.194 304.983C57.222 304.949 57.2475 304.923 57.266 304.907C57.3044 304.873 57.2915 304.896 57.1796 304.949L61.1488 313.601ZM65.5042 309.703C66.5833 307.911 66.931 305.912 66.9756 304.098L57.247 304.175C57.2371 304.583 57.195 304.842 57.1616 304.981C57.1286 305.119 57.115 305.096 57.1832 304.983L65.5042 309.703ZM66.9724 304.191C67.0533 302.35 66.8367 300.217 66.4353 297.902L56.8422 299.824C57.1902 301.83 57.2886 303.212 57.2502 304.082L66.9724 304.191ZM66.4432 297.95C66.0575 295.582 65.9481 293.9 66.0059 292.792L56.2875 292.605C56.1795 294.672 56.3981 297.099 56.8342 299.777L66.4432 297.95ZM66.0012 292.869C66.0791 291.733 66.3043 291.286 66.3498 291.21L58.0453 286.463C56.9088 288.337 56.4335 290.465 56.2922 292.528L66.0012 292.869ZM66.2569 291.358C66.2714 291.336 66.4187 291.109 67.0457 290.812L63.0766 282.16C61.1447 283.074 59.3829 284.415 58.1381 286.316L66.2569 291.358ZM67.0457 290.812C68.0237 290.35 68.5632 290.422 69.1484 290.713L73.7443 282.092C70.2939 280.375 66.5767 280.504 63.0766 282.16L67.0457 290.812ZM69.1913 290.735C69.9557 291.105 70.9986 292.015 72.0171 294.236L80.9023 290.031C79.3251 286.593 77.0256 283.682 73.7012 282.071L69.1913 290.735ZM72.0171 294.236C72.8301 296.008 72.9198 297.324 72.714 298.333L82.2511 299.94C82.944 296.543 82.3518 293.191 80.9023 290.031L72.0171 294.236ZM72.6973 298.418C72.5129 299.414 72.0234 300.318 70.9411 301.227L77.1003 308.474C79.8122 306.197 81.6307 303.292 82.2677 299.855L72.6973 298.418ZM75.7587 300.305C76.9282 300.709 77.27 301.526 77.2291 301.436L68.3439 305.641C68.9459 306.954 70.1106 308.645 72.2827 309.396L75.7587 300.305ZM77.2291 301.436C77.3941 301.796 77.5417 302.383 77.425 303.09C77.3123 303.775 77.0099 304.224 76.849 304.417L69.4184 298.446C68.6926 299.317 68.05 300.457 67.8215 301.844C67.5891 303.254 67.8454 304.555 68.3439 305.641L77.2291 301.436ZM76.8955 304.361C78.4455 302.444 79.3253 300.222 79.5754 297.842L69.8962 297.155C69.832 297.767 69.6436 298.167 69.3718 298.502L76.8955 304.361ZM79.5702 297.889C79.8398 295.545 79.4712 293.276 78.5033 291.166L69.6181 295.371C69.8887 295.961 69.9702 296.511 69.9015 297.108L79.5702 297.889ZM78.5033 291.166C77.3491 288.65 75.6468 286.24 73.0246 284.897L68.3311 293.469C68.323 293.465 68.4605 293.532 68.7045 293.827C68.9537 294.128 69.2719 294.616 69.6181 295.371L78.5033 291.166ZM73.0246 284.897C70.1646 283.432 67.0932 283.671 64.3626 284.964L68.3317 293.616C68.4684 293.551 68.5536 293.525 68.5904 293.515C68.6251 293.507 68.6168 293.512 68.5736 293.513C68.5286 293.514 68.4726 293.51 68.4159 293.497C68.3601 293.484 68.3311 293.469 68.3311 293.469L73.0246 284.897ZM64.3626 284.964C62.7923 285.707 61.3528 286.869 60.3789 288.54L68.773 293.137C68.6805 293.296 68.5677 293.426 68.462 293.518C68.3616 293.606 68.3026 293.63 68.3317 293.616L64.3626 284.964ZM60.3226 288.639C59.4401 290.237 59.1751 291.983 59.1264 293.487L68.8527 293.485C68.8637 293.149 68.8957 292.953 68.9151 292.865C68.9349 292.775 68.9287 292.858 68.8291 293.038L60.3226 288.639ZM59.1264 293.487C59.0766 295.026 59.2452 296.853 59.5444 298.855L69.1723 297.15C68.9072 295.375 68.8299 294.191 68.8527 293.485L59.1264 293.487ZM59.545 298.859C60.0052 301.92 60.1504 304.014 60.0939 305.296L69.8161 305.404C69.9131 303.201 69.6606 300.397 69.1718 297.146L59.545 298.859ZM60.0925 305.331C60.0698 305.952 59.9994 306.389 59.9259 306.676C59.8529 306.961 59.7906 307.045 59.8117 307.012L67.971 311.992C69.2816 309.958 69.7359 307.595 69.8175 305.369L60.0925 305.331ZM59.8117 307.012C59.8312 306.982 59.6487 307.287 58.7412 307.716L62.7103 316.369C64.735 315.411 66.6629 314.022 67.971 311.992L59.8117 307.012ZM58.7412 307.716C57.8548 308.136 57.1555 308.216 56.5292 308.131L54.9031 317.663C57.5979 318.028 60.2383 317.539 62.7103 316.369L58.7412 307.716ZM56.576 308.138C55.9784 308.051 55.274 307.774 54.4413 307.047L47.8669 314.346C49.8492 316.077 52.1862 317.268 54.8563 317.656L56.576 308.138ZM54.4704 307.073C53.6814 306.372 52.865 305.291 52.1144 303.655L43.2292 307.86C44.384 310.377 45.8891 312.589 47.8379 314.32L54.4704 307.073Z" fill="#00FF00"/>
<path d="M47.4656 306.793C46.644 305.002 46.1677 303.221 46.0368 301.451C45.9326 299.668 46.1712 298.101 46.7526 296.752C47.334 295.403 48.2111 294.451 49.3839 293.896C49.9171 293.643 50.4269 293.623 50.9134 293.835C51.4386 294.061 51.8574 294.478 52.1699 295.089C50.4678 296.4 49.4333 297.963 49.0662 299.78C48.6992 301.596 49.0038 303.569 49.9802 305.697C50.9804 307.878 52.304 309.384 53.9509 310.216C55.6096 311.073 57.2786 311.105 58.958 310.31C59.9441 309.844 60.6706 309.199 61.1375 308.378C61.6162 307.583 61.8721 306.514 61.9051 305.172C61.9647 303.817 61.8072 302.059 61.4324 299.898C61.0215 297.376 60.8575 295.321 60.9404 293.734C61.0499 292.134 61.4002 290.847 61.9912 289.872C62.6208 288.911 63.5754 288.127 64.8548 287.522C67.0938 286.462 69.2222 286.434 71.24 287.438C73.2843 288.429 74.9555 290.339 76.2535 293.169C77.3846 295.634 77.7256 297.969 77.2763 300.172C76.8656 302.388 75.7115 304.293 73.8144 305.886C73.3131 305.712 72.9017 305.275 72.5802 304.574C72.2467 303.847 72.3626 303.145 72.9273 302.467C73.8383 301.341 74.3724 300.03 74.5295 298.534C74.6986 297.064 74.4735 295.654 73.8545 294.304C72.9137 292.253 71.7862 290.891 70.4716 290.218C69.1571 289.545 67.7135 289.581 66.1408 290.325C65.3411 290.703 64.7507 291.22 64.3696 291.874C64.0151 292.516 63.8196 293.398 63.7833 294.521C63.7469 295.644 63.8698 297.149 64.1521 299.038C64.6266 302.194 64.8254 304.643 64.7488 306.385C64.6839 308.153 64.3294 309.537 63.685 310.537C63.0408 311.537 61.9856 312.384 60.5196 313.078C58.8402 313.873 57.1704 314.157 55.5099 313.932C53.876 313.695 52.3553 312.961 50.9479 311.732C49.579 310.516 48.4182 308.869 47.4656 306.793Z" fill="black"/>
<path d="M130.084 372.335C127.054 370.189 125.437 367.487 125.232 364.228C125.049 360.984 126.301 357.465 128.989 353.671C131.693 349.854 134.598 347.505 137.705 346.624C140.827 345.72 143.914 346.348 146.965 348.509C148.194 349.379 149.182 350.41 149.929 351.601C150.691 352.77 151.157 354.044 151.326 355.423C150.901 355.752 150.495 355.944 150.105 356C149.716 356.055 149.373 355.978 149.076 355.768C148.78 355.558 148.575 355.264 148.461 354.885C147.973 353.148 146.945 351.725 145.377 350.615C143.047 348.964 140.691 348.539 138.311 349.338C135.931 350.138 133.608 352.137 131.341 355.336C129.091 358.513 127.983 361.356 128.019 363.866C128.054 366.375 129.237 368.455 131.568 370.106C132.564 370.811 133.555 371.298 134.543 371.566C135.551 371.849 136.682 371.937 137.935 371.831C138.194 372.048 138.342 372.334 138.376 372.69C138.426 373.023 138.342 373.345 138.123 373.653C137.763 374.161 137.141 374.433 136.256 374.469C135.393 374.52 134.393 374.359 133.258 373.986C132.159 373.605 131.101 373.055 130.084 372.335Z" fill="#00FF00"/>
<path d="M125.232 364.228L124.137 364.334L124.137 364.341L125.232 364.228ZM137.705 346.624L137.963 347.693L137.968 347.692L137.705 346.624ZM149.928 351.601L148.996 352.222L149.006 352.238L149.928 351.601ZM151.325 355.423L151.971 356.295L152.493 355.89L152.414 355.244L151.325 355.423ZM150.105 356L150.217 357.1L150.105 356ZM148.461 354.885L147.405 355.227L147.41 355.245L148.461 354.885ZM138.311 349.338L138.002 348.285L138.311 349.338ZM128.018 363.866L129.116 363.807L128.018 363.866ZM134.543 371.566L134.873 370.494L134.864 370.491L134.543 371.566ZM137.935 371.831L138.652 370.962L138.321 370.686L137.884 370.723L137.935 371.831ZM138.376 372.69L137.284 372.84L137.287 372.869L137.291 372.898L138.376 372.69ZM136.256 374.469L136.254 373.358L136.244 373.358L136.234 373.359L136.256 374.469ZM133.258 373.986L132.868 375.039L132.883 375.044L133.258 373.986ZM130.735 371.415C127.918 369.421 126.508 366.992 126.327 364.115L124.137 364.341C124.366 367.982 126.19 370.958 129.433 373.254L130.735 371.415ZM126.327 364.122C126.163 361.224 127.275 357.962 129.872 354.296L128.106 353.046C125.327 356.968 123.934 360.745 124.137 364.334L126.327 364.122ZM129.872 354.296C132.487 350.605 135.195 348.479 137.963 347.693L137.447 345.554C134.002 346.531 130.899 349.103 128.106 353.046L129.872 354.296ZM137.968 347.692C140.716 346.896 143.473 347.417 146.313 349.428L147.616 347.59C144.354 345.28 140.938 344.544 137.441 345.555L137.968 347.692ZM146.313 349.428C147.439 350.225 148.328 351.157 148.996 352.222L150.861 350.98C150.035 349.662 148.949 348.533 147.616 347.59L146.313 349.428ZM149.006 352.238C149.681 353.274 150.088 354.391 150.237 355.601L152.414 355.244C152.225 353.697 151.701 352.267 150.851 350.964L149.006 352.238ZM150.68 354.55C150.361 354.797 150.135 354.879 149.993 354.899L150.217 357.1C150.854 357.009 151.442 356.706 151.971 356.295L150.68 354.55ZM149.993 354.899C149.857 354.918 149.79 354.893 149.728 354.849L148.425 356.687C148.956 357.063 149.575 357.192 150.217 357.1L149.993 354.899ZM149.728 354.849C149.636 354.784 149.562 354.693 149.512 354.525L147.41 355.245C147.587 355.834 147.923 356.332 148.425 356.687L149.728 354.849ZM149.517 354.543C148.958 352.552 147.776 350.933 146.028 349.695L144.726 351.534C146.115 352.517 146.989 353.745 147.405 355.227L149.517 354.543ZM146.028 349.695C143.474 347.887 140.769 347.355 138.002 348.285L138.62 350.392C140.613 349.723 142.619 350.042 144.726 351.534L146.028 349.695ZM138.002 348.285C135.297 349.193 132.795 351.413 130.458 354.711L132.224 355.961C134.421 352.861 136.564 351.083 138.62 350.392L138.002 348.285ZM130.458 354.711C128.137 357.988 126.881 361.074 126.921 363.924L129.116 363.807C129.085 361.638 130.045 359.037 132.224 355.961L130.458 354.711ZM126.921 363.924C126.963 366.842 128.362 369.216 130.917 371.025L132.219 369.186C130.112 367.695 129.145 365.909 129.116 363.807L126.921 363.924ZM130.917 371.025C131.993 371.787 133.094 372.334 134.221 372.64L134.864 370.491C134.017 370.261 133.135 369.835 132.219 369.186L130.917 371.025ZM134.212 372.638C135.364 372.961 136.626 373.054 137.985 372.938L137.884 370.723C136.737 370.821 135.738 370.737 134.873 370.494L134.212 372.638ZM137.218 372.699C137.257 372.732 137.276 372.757 137.284 372.84L139.468 372.539C139.407 371.911 139.132 371.364 138.652 370.962L137.218 372.699ZM137.291 372.898C137.294 372.919 137.292 372.927 137.291 372.934C137.288 372.942 137.279 372.973 137.24 373.028L139.006 374.278C139.378 373.753 139.559 373.135 139.461 372.482L137.291 372.898ZM137.24 373.028C137.169 373.128 136.96 373.329 136.254 373.358L136.259 375.579C137.323 375.536 138.357 375.194 139.006 374.278L137.24 373.028ZM136.234 373.359C135.548 373.4 134.688 373.274 133.632 372.927L132.883 375.044C134.099 375.444 135.238 375.64 136.279 375.578L136.234 373.359ZM133.648 372.932C132.649 372.586 131.678 372.083 130.735 371.415L129.433 373.254C130.524 374.027 131.669 374.624 132.868 375.039L133.648 372.932Z" fill="#00FF00"/>
<path d="M309.964 79.3063C309.332 79.34 308.731 79.2157 308.16 78.9332C307.714 78.7122 307.385 78.4391 307.175 78.1141C306.988 77.8012 306.883 77.3864 306.858 76.8696L306.262 67.3052C306.188 65.9441 305.822 64.8328 305.164 63.9715C304.544 63.0969 303.503 62.2973 302.04 61.5728L299.51 60.3202L294.024 71.5549L291.346 70.2286L304.363 43.5699L312.807 47.7514C315.808 49.2374 317.829 51.0896 318.871 53.3079C319.924 55.5007 319.863 57.8034 318.685 60.2153C317.756 62.1197 316.33 63.4628 314.408 64.2452C312.499 65.0023 310.471 65.0545 308.326 64.4022C308.748 65.3676 309.015 66.4613 309.126 67.6832L309.964 79.3063ZM306.243 60.7221C308.475 61.8274 310.428 62.2111 312.102 61.8735C313.8 61.548 315.065 60.5349 315.896 58.8338C316.751 57.082 316.813 55.4731 316.081 54.0073C315.386 52.5283 313.911 51.2302 311.654 50.1127L305.888 47.2574L300.663 57.959L306.243 60.7221Z" fill="#00FF00"/>
<path d="M309.964 79.3063L310.01 80.48L311.204 80.4164L311.116 79.2052L309.964 79.3063ZM307.175 78.1141L306.184 78.7318L306.195 78.751L306.208 78.7699L307.175 78.1141ZM306.858 76.8696L308.012 76.797L308.011 76.7801L306.858 76.8696ZM306.262 67.3052L305.109 67.3859L305.109 67.3947L306.262 67.3052ZM305.164 63.9715L304.224 64.6669L304.236 64.6834L304.248 64.6994L305.164 63.9715ZM299.51 60.3202L300.026 59.2623L298.993 58.7505L298.477 59.8084L299.51 60.3202ZM294.024 71.5549L293.508 72.6127L294.541 73.1245L295.058 72.0666L294.024 71.5549ZM291.346 70.2286L290.313 69.7169L289.796 70.7748L290.83 71.2865L291.346 70.2286ZM304.363 43.5699L304.879 42.512L303.846 42.0002L303.329 43.0581L304.363 43.5699ZM318.871 53.3079L317.827 53.8257L317.832 53.8352L318.871 53.3079ZM314.408 64.2452L314.815 65.3395L314.825 65.3353L314.408 64.2452ZM308.326 64.4022L308.67 63.2759L306.242 62.5372L307.27 64.891L308.326 64.4022ZM309.126 67.6832L310.278 67.5821L310.278 67.5706L310.277 67.5592L309.126 67.6832ZM312.102 61.8735L311.902 60.7187L311.891 60.7209L312.102 61.8735ZM316.081 54.0073L315.037 54.525L315.043 54.5377L315.05 54.5502L316.081 54.0073ZM305.888 47.2574L306.405 46.1995L305.371 45.6877L304.855 46.7457L305.888 47.2574ZM300.663 57.9589L299.63 57.4473L299.113 58.5052L300.146 59.0168L300.663 57.9589ZM309.92 78.1331C309.482 78.156 309.074 78.0723 308.677 77.8753L307.644 79.9911C308.387 80.359 309.182 80.5241 310.01 80.48L309.92 78.1331ZM308.677 77.8753C308.361 77.7187 308.212 77.5667 308.141 77.458L306.208 78.7699C306.559 79.3115 307.067 79.7056 307.644 79.9911L308.677 77.8753ZM308.165 77.4962C308.109 77.4015 308.031 77.1948 308.012 76.797L305.704 76.9422C305.735 77.578 305.868 78.2009 306.184 78.7318L308.165 77.4962ZM308.011 76.7801L307.415 67.2157L305.109 67.3947L305.705 76.9592L308.011 76.7801ZM307.415 67.2246C307.331 65.6852 306.911 64.3313 306.08 63.2434L304.248 64.6994C304.733 65.3344 305.044 66.203 305.109 67.3858L307.415 67.2246ZM306.104 63.2759C305.332 62.1861 304.106 61.2823 302.556 60.5149L301.523 62.6306C302.9 63.3123 303.757 64.0077 304.224 64.6669L306.104 63.2759ZM302.556 60.5149L300.026 59.2623L298.993 61.3781L301.523 62.6306L302.556 60.5149ZM298.477 59.8084L292.991 71.0432L295.058 72.0666L300.543 60.8318L298.477 59.8084ZM294.541 70.497L291.863 69.1707L290.83 71.2865L293.508 72.6127L294.541 70.497ZM292.379 70.7403L305.396 44.0816L303.329 43.0581L290.313 69.7169L292.379 70.7403ZM303.846 44.6278L312.29 48.8093L313.324 46.6936L304.879 42.512L303.846 44.6278ZM312.29 48.8093C315.147 50.2238 316.931 51.9184 317.827 53.8256L319.914 52.7901C318.726 50.2608 316.468 48.2509 313.324 46.6936L312.29 48.8093ZM317.832 53.8352C318.713 55.6689 318.686 57.5857 317.652 59.7035L319.719 60.7272C321.039 58.021 321.136 55.3329 319.91 52.7807L317.832 53.8352ZM317.652 59.7035C316.849 61.3471 315.642 62.4827 313.991 63.1551L314.825 65.3353C317.018 64.4429 318.662 62.8917 319.719 60.7272L317.652 59.7035ZM314.001 63.1511C312.357 63.8027 310.596 63.8616 308.67 63.2759L307.982 65.5284C310.347 66.2476 312.64 66.2017 314.815 65.3394L314.001 63.1511ZM307.27 64.891C307.633 65.7244 307.874 66.6919 307.976 67.8071L310.277 67.5592C310.155 66.2306 309.862 65.0108 309.383 63.9134L307.27 64.891ZM307.974 67.7842L308.812 79.4074L311.116 79.2052L310.278 67.5821L307.974 67.7842ZM305.726 61.78C308.082 62.9467 310.3 63.432 312.312 63.026L311.891 60.7209C310.556 60.9902 308.867 60.708 306.759 59.6642L305.726 61.78ZM312.301 63.0283C314.392 62.6278 315.95 61.3521 316.929 59.3456L314.862 58.3222C314.181 59.7179 313.209 60.4685 311.902 60.7187L312.301 63.0283ZM316.929 59.3456C317.915 57.3267 318.039 55.3205 317.112 53.4644L315.05 54.5502C315.586 55.6257 315.587 56.8374 314.862 58.3222L316.929 59.3456ZM317.125 53.4895C316.273 51.6755 314.537 50.2266 312.171 49.0547L311.137 51.1705C313.285 52.2338 314.5 53.3813 315.037 54.525L317.125 53.4895ZM312.171 49.0547L306.405 46.1995L305.372 48.3153L311.137 51.1705L312.171 49.0547ZM304.855 46.7457L299.63 57.4473L301.696 58.4706L306.921 47.7691L304.855 46.7457ZM300.146 59.0168L305.726 61.78L306.759 59.6642L301.179 56.9011L300.146 59.0168Z" fill="#00FF00"/>
<path d="M265.573 51.1072C265.264 52.0767 264.914 52.6747 264.522 52.9018C264.157 53.1374 263.567 53.1199 262.753 52.849L248.301 48.0388L257.305 19.767L273.766 25.2456L272.994 27.669L259.369 23.134L256.127 33.3119L267.862 37.2176L267.091 39.641L255.355 35.7352L251.908 46.5592L265.573 51.1072Z" fill="#00FF00"/>
<path d="M265.573 51.1072L266.667 51.4713L267.024 50.3494L265.93 49.9853L265.573 51.1072ZM264.522 52.9017L263.957 51.8753L263.934 51.889L263.911 51.9038L264.522 52.9017ZM248.301 48.0388L247.207 47.6747L246.85 48.7966L247.944 49.1607L248.301 48.0388ZM257.305 19.767L257.663 18.6451L256.569 18.281L256.211 19.4028L257.305 19.767ZM273.766 25.2456L274.86 25.6097L275.217 24.4878L274.123 24.1237L273.766 25.2456ZM272.994 27.669L272.637 28.7908L273.731 29.155L274.088 28.0331L272.994 27.669ZM259.369 23.134L259.726 22.0121L258.632 21.648L258.275 22.7699L259.369 23.134ZM256.127 33.3118L255.033 32.9477L254.676 34.0696L255.77 34.4337L256.127 33.3118ZM267.862 37.2176L268.956 37.5817L269.314 36.4598L268.22 36.0957L267.862 37.2176ZM267.091 39.641L266.733 40.7629L267.827 41.127L268.184 40.0051L267.091 39.641ZM255.355 35.7352L255.713 34.6133L254.619 34.2492L254.261 35.3711L255.355 35.7352ZM251.908 46.5592L250.814 46.1951L250.457 47.317L251.551 47.6811L251.908 46.5592ZM264.479 50.7433C264.34 51.1785 264.207 51.4805 264.092 51.6774C263.971 51.884 263.913 51.9012 263.957 51.8753L265.087 53.9282C265.523 53.6754 265.836 53.28 266.065 52.8883C266.3 52.4871 266.497 52.0054 266.667 51.4713L264.479 50.7433ZM263.911 51.9038C263.98 51.8586 263.989 51.8908 263.841 51.8864C263.693 51.8819 263.456 51.842 263.111 51.7271L262.396 53.9709C263.248 54.2546 264.296 54.4402 265.134 53.8996L263.911 51.9038ZM263.111 51.7271L248.658 46.9169L247.944 49.1607L262.396 53.9709L263.111 51.7271ZM249.395 48.4029L258.399 20.131L256.211 19.4028L247.207 47.6747L249.395 48.4029ZM256.948 20.8889L273.409 26.3675L274.123 24.1237L257.663 18.6451L256.948 20.8889ZM272.672 24.8815L271.9 27.3049L274.088 28.0331L274.86 25.6097L272.672 24.8815ZM273.351 26.5471L259.726 22.0121L259.011 24.2558L272.637 28.7908L273.351 26.5471ZM258.275 22.7699L255.033 32.9477L257.221 33.6759L260.463 23.4981L258.275 22.7699ZM255.77 34.4337L267.505 38.3395L268.22 36.0957L256.485 32.1899L255.77 34.4337ZM266.769 36.8535L265.997 39.2769L268.184 40.0051L268.956 37.5817L266.769 36.8535ZM267.448 38.5191L255.713 34.6133L254.998 36.8571L266.733 40.7629L267.448 38.5191ZM254.261 35.3711L250.814 46.1951L253.002 46.9233L256.449 36.0992L254.261 35.3711ZM251.551 47.6811L265.215 52.2292L265.93 49.9853L252.265 45.4373L251.551 47.6811Z" fill="#00FF00"/>
<path d="M214.987 23.2982C216.513 23.7205 217.766 24.5809 218.746 25.8793C219.726 27.1778 220.224 28.6742 220.238 30.3687C220.261 32.9953 219.392 35.0295 217.633 36.4712C215.874 37.8849 213.361 38.593 210.094 38.5956L200.129 38.6036L199.874 8.94894L209.424 8.94121C212.303 8.93881 214.579 9.64313 216.252 11.0539C217.925 12.4365 218.772 14.328 218.792 16.7287C218.805 18.2255 218.457 19.5673 217.747 20.7541C217.065 21.9409 216.145 22.7888 214.987 23.2982ZM215.803 16.7311C215.789 15.093 215.21 13.8083 214.067 12.8773C212.952 11.9462 211.411 11.4814 209.446 11.4831L202.885 11.4884L202.978 22.2911L209.414 22.2859C213.705 22.2825 215.834 20.4308 215.803 16.7311ZM209.657 36.0541C212.37 36.0519 214.318 35.6125 215.501 34.7361C216.683 33.8314 217.266 32.3763 217.249 30.3712C217.232 28.3942 216.596 26.9543 215.343 26.0515C214.117 25.1487 212.162 24.6985 209.477 24.7006L202.999 24.7059L203.097 36.0594L209.657 36.0541Z" fill="#00FF00"/>
<path d="M214.987 23.2982L214.523 22.2168L211.495 23.5485L214.693 24.4337L214.987 23.2982ZM218.746 25.8793L217.835 26.5927L218.746 25.8793ZM217.633 36.4712L218.351 37.3981L218.36 37.391L217.633 36.4712ZM200.129 38.6036L198.975 38.6047L198.986 39.7814L200.139 39.7805L200.129 38.6036ZM199.874 8.94894L199.864 7.77225L198.71 7.77313L198.721 8.94997L199.874 8.94894ZM216.252 11.0539L215.521 11.9585L215.53 11.9659L216.252 11.0539ZM217.747 20.7541L216.761 20.1354L216.751 20.1529L217.747 20.7541ZM214.067 12.8773L213.341 13.7858L213.352 13.7947L214.067 12.8773ZM202.885 11.4884L202.875 10.3116L201.722 10.3126L201.732 11.4893L202.885 11.4884ZM202.978 22.2911L201.825 22.2922L201.835 23.4689L202.988 23.468L202.978 22.2911ZM215.501 34.7361L216.183 35.6902L216.197 35.6796L215.501 34.7361ZM215.343 26.0515L214.673 27.0039L214.683 27.0112L215.343 26.0515ZM202.999 24.7059L202.989 23.5291L201.836 23.53L201.846 24.7068L202.999 24.7059ZM203.097 36.0595L201.943 36.0603L201.953 37.2372L203.107 37.2361L203.097 36.0595ZM214.693 24.4337C215.971 24.7872 217.008 25.497 217.835 26.5927L219.658 25.166C218.525 23.6648 217.056 22.654 215.281 22.1626L214.693 24.4337ZM217.835 26.5927C218.654 27.678 219.072 28.922 219.085 30.3696L221.392 30.3678C221.375 28.4264 220.799 26.6774 219.658 25.166L217.835 26.5927ZM219.085 30.3696C219.105 32.6933 218.354 34.3656 216.907 35.5515L218.36 37.391C220.431 35.6933 221.417 33.2973 221.392 30.3678L219.085 30.3696ZM216.915 35.5445C215.43 36.7374 213.206 37.4163 210.084 37.4188L210.104 39.7723C213.515 39.7696 216.317 39.0323 218.351 37.398L216.915 35.5445ZM210.084 37.4188L200.119 37.4269L200.139 39.7805L210.104 39.7723L210.084 37.4188ZM201.282 38.6027L201.027 8.94803L198.721 8.94997L198.975 38.6047L201.282 38.6027ZM199.884 10.1258L209.434 10.118L209.414 7.76452L199.864 7.77225L199.884 10.1258ZM209.434 10.118C212.133 10.1158 214.118 10.7748 215.521 11.9585L216.983 10.1493C215.04 8.51141 212.473 7.76194 209.414 7.76452L209.434 10.118ZM215.53 11.9659C216.905 13.1017 217.621 14.6432 217.639 16.7295L219.946 16.7276C219.922 14.0129 218.945 11.7713 216.974 10.1418L215.53 11.9659ZM217.639 16.7295C217.65 18.0243 217.351 19.1486 216.761 20.1355L218.733 21.3727C219.562 19.9861 219.96 18.4267 219.946 16.7276L217.639 16.7295ZM216.751 20.1529C216.183 21.1416 215.442 21.8128 214.523 22.2168L215.451 24.3794C216.848 23.765 217.948 22.74 218.744 21.3552L216.751 20.1529ZM216.956 16.7301C216.939 14.7771 216.23 13.139 214.782 11.96L213.352 13.7947C214.19 14.4779 214.638 15.4087 214.649 16.732L216.956 16.7301ZM214.793 11.9691C213.404 10.8095 211.571 10.3045 209.436 10.3063L209.456 12.6598C211.252 12.6584 212.499 13.083 213.341 13.7856L214.793 11.9691ZM209.436 10.3063L202.875 10.3116L202.895 12.6651L209.456 12.6598L209.436 10.3063ZM201.732 11.4893L201.825 22.2922L204.132 22.2902L204.039 11.4875L201.732 11.4893ZM202.988 23.468L209.424 23.4628L209.404 21.1092L202.968 21.1144L202.988 23.468ZM209.424 23.4628C211.705 23.4609 213.626 22.972 214.982 21.7928C216.375 20.5816 216.974 18.8181 216.956 16.7301L214.649 16.732C214.663 18.3438 214.214 19.356 213.477 19.9964C212.704 20.6689 211.415 21.1076 209.404 21.1092L209.424 23.4628ZM209.667 37.2308C212.445 37.2287 214.699 36.7899 216.183 35.69L214.818 33.7821C213.937 34.4352 212.296 34.8752 209.647 34.8773L209.667 37.2308ZM216.197 35.6796C217.76 34.4843 218.421 32.6159 218.402 30.3703L216.095 30.3721C216.11 32.1368 215.607 33.1785 214.804 33.7927L216.197 35.6796ZM218.402 30.3703C218.383 28.126 217.644 26.2737 216.003 25.0919L214.683 27.0112C215.549 27.6349 216.08 28.6624 216.095 30.3721L218.402 30.3703ZM216.013 25.0993C214.486 23.9745 212.227 23.5216 209.466 23.5238L209.487 25.8775C212.096 25.8753 213.748 26.323 214.673 27.0038L216.013 25.0993ZM209.466 23.5238L202.989 23.5291L203.009 25.8826L209.487 25.8775L209.466 23.5238ZM201.846 24.7068L201.943 36.0603L204.25 36.0585L204.153 24.7049L201.846 24.7068ZM203.107 37.2361L209.667 37.2308L209.647 34.8773L203.086 34.8826L203.107 37.2361Z" fill="#00FF00"/>
<path d="M160.901 17L158.43 36.6073L163.288 48.0773L160.523 49.2123L155.664 37.7425L139.776 25.6709L142.772 24.4411L155.979 34.5451L157.944 18.2139L160.901 17Z" fill="#00FF00"/>
<path d="M161.408 16.8743L162.604 17.0514L162.9 15L160.948 15.7737L161.408 16.8743ZM158.533 36.7648L157.338 36.5877L157.291 36.9073L157.417 37.2071L158.533 36.7648ZM163.406 48.4125L163.866 49.5129L164.982 49.0706L164.522 47.9702L163.406 48.4125ZM160.513 49.5589L159.396 50.0012L159.857 51.1017L160.973 50.6595L160.513 49.5589ZM155.64 37.9114L156.756 37.4689L156.631 37.1691L156.368 36.9719L155.64 37.9114ZM139.307 25.6322L138.847 24.5317L136.894 25.3054L138.579 26.5717L139.307 25.6322ZM142.441 24.3901L143.173 23.4532L142.622 23.0359L141.981 23.2897L142.441 24.3901ZM156.016 34.6677L155.285 35.6047L156.933 36.8529L157.213 34.8382L156.016 34.6677ZM158.314 18.1004L157.854 16.9998L157.211 17.2544L157.118 17.9299L158.314 18.1004ZM160.213 16.6971L157.338 36.5877L159.729 36.9419L162.604 17.0514L160.213 16.6971ZM157.417 37.2071L162.29 48.8548L164.522 47.9702L159.649 36.3225L157.417 37.2071ZM162.945 47.3119L160.052 48.4585L160.973 50.6595L163.866 49.5129L162.945 47.3119ZM161.629 49.1166L156.756 37.4689L154.524 38.3536L159.396 50.0012L161.629 49.1166ZM156.368 36.9719L140.036 24.6927L138.579 26.5717L154.912 38.8507L156.368 36.9719ZM139.768 26.7328L142.902 25.4907L141.981 23.2897L138.847 24.5317L139.768 26.7328ZM141.71 25.3272L155.285 35.6047L156.748 33.7308L143.173 23.4532L141.71 25.3272ZM157.213 34.8382L159.511 18.2709L157.118 17.9299L154.82 34.4973L157.213 34.8382ZM158.775 19.2008L161.869 17.9746L160.948 15.7737L157.854 16.9998L158.775 19.2008Z" fill="#00FF00"/>
<path d="M109.045 72.6587L107.47 77.0359L107.484 77.041L107.498 77.0461L109.045 72.6587ZM97.7795 53.1545L102.355 54.0041L102.357 53.992L102.359 53.9799L97.7795 53.1545ZM108.088 43.5877L108.788 48.227L108.828 48.2216L108.867 48.2155L108.088 43.5877ZM112.39 43.8914L116.912 42.9176L116.3 40.2213L113.675 39.4146L112.39 43.8914ZM112.393 45.3077L116.823 46.7696L116.823 46.7695L112.393 45.3077ZM110.578 46.4036L109.981 51.0358L110.021 51.0417L110.061 51.047L110.578 46.4036ZM100.661 53.7403L96.0537 53.1126L100.661 53.7403ZM109.957 69.8348L111.717 65.5328L109.957 69.8348ZM120.303 66.8948L116.782 63.7876L116.77 63.802L116.757 63.8166L120.303 66.8948ZM122.091 63.7608L120.052 59.5222L118.392 60.3142L117.745 62.0501L122.091 63.7608ZM123.116 63.7072L121.718 68.1475L121.834 68.1865L121.952 68.2194L123.116 63.7072ZM123.866 66.5006L119.595 64.601L119.578 64.6397L119.563 64.6789L123.866 66.5006ZM122.045 69.1644L125.386 72.4676L125.411 72.4426L125.435 72.4171L122.045 69.1644ZM116.672 67.4206C114.206 68.8439 112.304 68.9106 110.592 68.2712L107.498 77.0461C112.231 78.8142 116.982 78.1046 121.378 75.5679L116.672 67.4206ZM110.62 68.2816C108.785 67.5831 106.704 65.8552 104.604 62.219L96.6066 66.8342C99.3626 71.6059 102.908 75.2993 107.47 77.0359L110.62 68.2816ZM104.604 62.219C102.483 58.5477 102.04 55.8955 102.355 54.0041L93.2039 52.305C92.402 57.1195 93.8425 62.0488 96.6066 66.8342L104.604 62.219ZM102.359 53.9799C102.642 52.2244 103.63 50.6148 106.131 49.1712L101.425 41.0241C97.0172 43.568 94.0056 47.3297 93.1999 52.3291L102.359 53.9799ZM106.131 49.1712C107.053 48.6389 107.933 48.3444 108.788 48.227L107.389 38.9485C105.28 39.2381 103.286 39.9502 101.425 41.0241L106.131 49.1712ZM108.867 48.2155C109.663 48.0918 110.391 48.1485 111.106 48.3683L113.675 39.4146C111.589 38.7737 109.449 38.6278 107.309 38.9602L108.867 48.2155ZM107.869 44.8653C107.867 44.8574 107.845 44.7587 107.845 44.5868C107.844 44.4103 107.867 44.1515 107.962 43.8458L116.823 46.7695C117.258 45.3635 117.159 44.0083 116.912 42.9176L107.869 44.8653ZM107.962 43.8458C108.048 43.5682 108.201 43.2336 108.459 42.9015C108.72 42.5655 109.032 42.3047 109.352 42.12L114.057 50.2671C115.453 49.4615 116.381 48.1979 116.823 46.7696L107.962 43.8458ZM109.352 42.12C109.621 41.9646 109.928 41.8482 110.256 41.7871C110.58 41.7266 110.868 41.7306 111.095 41.7602L110.061 51.047C111.398 51.2203 112.793 50.9969 114.057 50.2671L109.352 42.12ZM111.176 41.7713C108.179 41.3287 105.317 41.9555 102.73 43.4486L107.435 51.5957C108.399 51.0397 109.201 50.9207 109.981 51.0358L111.176 41.7713ZM102.73 43.4486C99.0781 45.556 96.5631 48.7858 96.0537 53.1126L105.268 54.3677C105.376 53.45 105.809 52.5344 107.435 51.5957L102.73 43.4486ZM96.0537 53.1126C95.5766 57.1653 96.9698 61.3155 99.2697 65.2974L107.267 60.682C105.473 57.5759 105.128 55.5597 105.268 54.3677L96.0537 53.1126ZM99.2697 65.2974C101.56 69.2625 104.453 72.526 108.197 74.1369L111.717 65.5328C110.609 65.0559 109.042 63.756 107.267 60.682L99.2697 65.2974ZM108.197 74.1369C112.201 75.8594 116.256 75.297 119.908 73.1897L115.202 65.0426C113.576 65.9812 112.566 65.8981 111.717 65.5328L108.197 74.1369ZM119.908 73.1897C121.4 72.3286 122.746 71.2717 123.848 69.9731L116.757 63.8166C116.451 64.1783 115.965 64.6021 115.202 65.0426L119.908 73.1897ZM123.823 70.0023C124.966 68.6781 125.817 67.1362 126.437 65.4716L117.745 62.0501C117.437 62.8764 117.096 63.424 116.782 63.7876L123.823 70.0023ZM124.131 67.9993C123.787 68.1631 123.372 68.2819 122.908 68.3062C122.447 68.3304 122.041 68.2559 121.718 68.1475L124.514 59.2668C123.061 58.7792 121.486 58.8382 120.052 59.5222L124.131 67.9993ZM121.952 68.2194C121.524 68.1002 121.093 67.8866 120.71 67.5762C120.333 67.2715 120.084 66.9406 119.928 66.6711L127.925 62.0558C127.172 60.7519 125.938 59.6561 124.28 59.195L121.952 68.2194ZM119.928 66.6711C119.603 66.1076 119.505 65.5367 119.518 65.1076C119.528 64.7263 119.621 64.5397 119.595 64.601L128.136 68.4004C128.798 66.8381 129.295 64.4265 127.925 62.0558L119.928 66.6711ZM119.563 64.6789C119.502 64.8306 119.282 65.2462 118.656 65.9116L125.435 72.4171C126.553 71.2285 127.547 69.8685 128.169 68.3225L119.563 64.6789ZM118.704 65.861C118.156 66.4264 117.487 66.9501 116.672 67.4206L121.378 75.5679C122.865 74.7092 124.211 73.6796 125.386 72.4676L118.704 65.861Z" fill="#00FF00"/>
<path d="M118.727 71.3451C115.296 73.325 111.97 73.7131 108.747 72.5095C105.549 71.292 102.736 68.5813 100.308 64.3774C97.8652 60.149 96.9234 56.3584 97.4818 53.0053C98.0262 49.6278 100.026 46.9422 103.48 44.9484C104.872 44.1453 106.309 43.6421 107.791 43.4385C109.258 43.2107 110.692 43.3118 112.093 43.7421C112.217 44.2897 112.218 44.7618 112.095 45.1585C111.972 45.5552 111.743 45.8504 111.407 46.0443C111.071 46.2381 110.696 46.3081 110.281 46.2543C108.392 45.9755 106.56 46.3484 104.785 47.3729C102.146 48.8959 100.672 50.9686 100.363 53.591C100.054 56.2133 100.924 59.2965 102.971 62.8404C105.003 66.3601 107.233 68.6418 109.659 69.6856C112.086 70.7295 114.618 70.4899 117.257 68.9669C118.385 68.3161 119.301 67.5758 120.005 66.7456C120.733 65.9019 121.329 64.8572 121.794 63.6116C122.12 63.4561 122.461 63.4381 122.818 63.558C123.161 63.6532 123.432 63.8721 123.629 64.2142C123.954 64.7763 123.933 65.4888 123.568 66.3514C123.227 67.2002 122.62 68.0881 121.748 69.0152C120.885 69.9038 119.879 70.6804 118.727 71.3451Z" fill="black"/>
</svg>
