<svg width="207" height="218" viewBox="0 0 207 218" fill="none" xmlns="http://www.w3.org/2000/svg">
<path d="M177.917 104.352C168.774 83.6528 169.141 76.3531 148.525 57.4476C141.337 50.0644 120.155 38.5716 104.101 35.4249C125.7 17.8687 155.622 8.77406 177.073 28.4549C198.524 48.1356 193.546 78.329 177.917 104.352Z" fill="white"/>
<path d="M90.2601 217.548C140.109 217.548 180.52 176.371 180.52 125.577C180.52 74.782 140.109 33.6049 90.2601 33.6049C40.4108 33.6049 0 74.782 0 125.577C0 176.371 40.4108 217.548 90.2601 217.548Z" fill="white"/>
<path d="M90.2601 208.705C135.316 208.705 171.841 171.487 171.841 125.577C171.841 79.6661 135.316 42.4483 90.2601 42.4483C45.2042 42.4483 8.67908 79.6661 8.67908 125.577C8.67908 171.487 45.2042 208.705 90.2601 208.705Z" fill="black"/>
<path d="M52.9518 190.808C59.2602 181.707 71.7812 163.642 95.0083 130.131C118.236 96.6197 114.46 102.068 137.065 69.4537C167.604 91.4308 173.53 136.413 150.303 169.924C127.076 203.435 83.4902 212.786 52.9518 190.808Z" fill="#ED1C24"/>
<path d="M137.451 69.446C129.732 77.3382 114.41 93.0026 85.9879 122.061C57.5658 151.12 62.1864 146.396 34.5249 174.677C8.04402 147.784 9.61779 102.427 38.0401 73.3682C66.4622 44.3093 110.97 42.5533 137.451 69.446Z" fill="#ED1C24"/>
<path d="M116.937 75.9101C110.973 81.8383 99.1356 93.6043 77.1767 115.431C55.2176 137.258 58.7875 133.71 37.4165 154.952C20.0121 136.772 23.7044 104.34 45.6633 82.5135C67.6223 60.6865 99.5325 57.73 116.937 75.9101Z" fill="black"/>
<path d="M116.937 75.9101C110.973 81.8383 99.1356 93.6043 77.1767 115.431C55.2176 137.258 58.7875 133.71 37.4165 154.952C20.0121 136.772 23.7044 104.34 45.6633 82.5135C67.6223 60.6865 99.5325 57.73 116.937 75.9101Z" fill="black"/>
<path d="M106.958 78.3819C101.926 83.3838 91.9388 93.3115 73.4107 111.728C54.8829 130.144 57.8949 127.15 39.8632 145.074C26.4752 131.089 30.6419 104.823 49.1698 86.4065C67.6976 67.9901 93.5705 64.3973 106.958 78.3819Z" fill="white"/>
<path d="M95.7448 80.6341C91.7377 84.6171 83.7847 92.5226 69.031 107.188C54.2773 121.853 56.6757 119.468 42.317 133.741C37.3193 123.808 39.7326 106.66 54.4863 91.9947C69.24 77.3297 85.0528 75.1693 95.7448 80.6341Z" fill="black"/>
<path d="M70.9241 182.548C75.8508 175.702 85.6292 162.114 103.769 136.906C121.909 111.698 118.96 115.796 136.614 91.2633C156.714 106.281 158.303 138.891 140.163 164.098C122.024 189.305 91.0242 197.567 70.9241 182.548Z" fill="black"/>
<path d="M70.9241 182.548C75.8508 175.702 85.6292 162.114 103.769 136.906C121.909 111.698 118.96 115.796 136.614 91.2633C156.714 106.281 158.303 138.891 140.163 164.098C122.024 189.305 91.0242 197.567 70.9241 182.548Z" fill="black"/>
<path d="M80.3683 178.439C84.5251 172.663 92.7757 161.197 108.081 139.928C123.386 118.659 120.898 122.117 135.794 101.417C151.255 112.97 151.382 139.577 136.077 160.846C120.771 182.114 95.8297 189.992 80.3683 178.439Z" fill="white"/>
<path d="M91.0661 174.34C94.3763 169.739 100.946 160.61 113.134 143.673C125.321 126.737 123.34 129.49 135.201 113.007C141.733 121.968 142.119 139.287 129.931 156.224C117.743 173.16 102.494 177.94 91.0661 174.34Z" fill="black"/>
<path d="M160.559 31.8364C162.661 28.0424 164.018 25.984 164.898 21.7195C164.444 16.3985 162.841 14.8446 159.691 12.3808" stroke="white" stroke-width="6"/>
<path d="M155.351 19.4555C160.624 19.4555 164.898 15.1003 164.898 9.72777C164.898 4.35527 160.624 0 155.351 0C150.079 0 145.805 4.35527 145.805 9.72777C145.805 15.1003 150.079 19.4555 155.351 19.4555Z" fill="white"/>
<path d="M154.483 14.1495C157.359 14.1495 159.691 11.7739 159.691 8.84342C159.691 5.91297 157.359 3.53737 154.483 3.53737C151.608 3.53737 149.276 5.91297 149.276 8.84342C149.276 11.7739 151.608 14.1495 154.483 14.1495Z" fill="black"/>
<path d="M158.823 32.7207C160.925 28.4092 163.15 25.1858 164.03 20.3399C162.304 14.6021 160.256 13.6175 157.955 10.6121" stroke="black" stroke-width="2"/>
<path d="M171.934 40.1409C174.73 36.8444 176.174 34.8482 179.817 32.5645C184.886 31.2048 186.862 32.2176 190.2 34.408" stroke="white" stroke-width="6"/>
<path d="M185.129 40.9577C183.35 35.9004 185.931 30.3309 190.894 28.5179C195.858 26.7049 201.323 29.3349 203.103 34.3923C204.882 39.4496 202.301 45.0191 197.338 46.8321C192.374 48.6451 186.908 46.0151 185.129 40.9577Z" fill="white"/>
<path d="M190.324 39.9996C189.353 37.241 190.761 34.2031 193.468 33.2142C196.176 32.2253 199.157 33.6598 200.127 36.4184C201.098 39.177 199.69 42.2149 196.983 43.2038C194.276 44.1927 191.294 42.7581 190.324 39.9996Z" fill="black"/>
<path d="M171.703 42.1043C174.977 38.6332 177.204 35.4113 181.384 32.9314C187.266 32.6513 188.868 34.2833 192.421 35.476" stroke="black" stroke-width="2"/>
<path d="M175.313 95.5092C172.709 89.3187 165.766 72.5163 148.408 56.598C142.333 50.4077 119.768 38.9112 111.957 36.258C129.051 22.712 154.346 16.6345 172.407 33.2052C190.468 49.7758 187.293 74.9329 175.313 95.5092Z" fill="black"/>
</svg>
